<?xml version="1.0" encoding="utf-8"?>
<!-- Generator: Adobe Illustrator 16.0.0, SVG Export Plug-In . SVG Version: 6.00 Build 0)  -->
<!DOCTYPE svg PUBLIC "-//W3C//DTD SVG 1.1//EN" "http://www.w3.org/Graphics/SVG/1.1/DTD/svg11.dtd">
<svg version="1.1" id="Layer_1" xmlns="http://www.w3.org/2000/svg" xmlns:xlink="http://www.w3.org/1999/xlink" x="0px" y="0px"
	 width="20px" height="20px" viewBox="0 0 20 20" enable-background="new 0 0 20 20" xml:space="preserve">
<g>
	<path d="M18,10c0,0.202-0.06,0.407-0.179,0.616c-0.833,1.369-1.954,2.466-3.361,3.29c-1.408,0.824-2.895,1.236-4.46,1.236
		s-3.052-0.414-4.46-1.241s-2.528-1.923-3.361-3.285C2.06,10.407,2,10.202,2,10s0.06-0.408,0.179-0.616
		C3.012,8.021,4.132,6.926,5.54,6.099C6.948,5.271,8.435,4.857,10,4.857s3.052,0.413,4.46,1.241
		c1.407,0.827,2.528,1.922,3.361,3.285C17.94,9.592,18,9.798,18,10z M16.857,10c-0.905-1.404-2.039-2.455-3.402-3.151
		C13.818,7.468,14,8.137,14,8.857c0,1.101-0.392,2.043-1.174,2.825c-0.783,0.783-1.725,1.174-2.826,1.174
		c-1.101,0-2.043-0.391-2.826-1.174C6.391,10.9,6,9.958,6,8.857c0-0.721,0.182-1.39,0.544-2.009C5.182,7.545,4.047,8.596,3.143,10
		c0.792,1.22,1.784,2.191,2.978,2.915C7.314,13.638,8.607,14,10,14c1.393,0,2.686-0.362,3.88-1.085
		C15.073,12.191,16.065,11.22,16.857,10z M10.304,6.875c0.083-0.083,0.125-0.185,0.125-0.304s-0.042-0.22-0.125-0.304
		C10.22,6.185,10.119,6.143,10,6.143c-0.744,0-1.382,0.267-1.915,0.8C7.552,7.475,7.286,8.113,7.286,8.857
		c0,0.119,0.042,0.22,0.125,0.303c0.083,0.084,0.185,0.125,0.304,0.125s0.22-0.041,0.304-0.125c0.083-0.083,0.125-0.184,0.125-0.303
		c0-0.512,0.181-0.949,0.544-1.312C9.05,7.182,9.488,7,10,7C10.119,7,10.22,6.958,10.304,6.875z"/>
</g>
</svg>
