<?xml version="1.0" encoding="utf-8"?>
<!-- Generator: Adobe Illustrator 16.0.0, SVG Export Plug-In . SVG Version: 6.00 Build 0)  -->
<!DOCTYPE svg PUBLIC "-//W3C//DTD SVG 1.1//EN" "http://www.w3.org/Graphics/SVG/1.1/DTD/svg11.dtd">
<svg version="1.1" id="Layer_1" xmlns="http://www.w3.org/2000/svg" xmlns:xlink="http://www.w3.org/1999/xlink" x="0px" y="0px"
	 width="20px" height="20px" viewBox="0 0 20 20" enable-background="new 0 0 20 20" xml:space="preserve">
<g>
	<path fill="#010202" d="M13.945,8.745l3.498-3.496c0.743-0.744,0.742-1.949,0.001-2.693c-0.743-0.742-1.946-0.74-2.689,0
		l-3.497,3.498l-0.54-0.539c-0.147-0.146-0.388-0.146-0.536,0.002L9.645,6.054C9.496,6.202,9.495,6.444,9.643,6.591l0.539,0.539
		l-7.262,7.264c-0.149,0.148-0.27,0.438-0.27,0.648v0.852c0,0.211-0.12,0.502-0.269,0.65l-0.27,0.27
		c-0.148,0.148-0.148,0.389,0,0.537l0.538,0.537c0.148,0.148,0.39,0.15,0.538,0l0.27-0.268c0.148-0.148,0.439-0.27,0.648-0.27h0.853
		c0.21,0,0.501-0.119,0.649-0.27l7.264-7.262l0.536,0.539c0.15,0.148,0.392,0.148,0.54,0l0.537-0.539
		c0.149-0.148,0.15-0.391,0.002-0.539L13.945,8.745z M8.566,12.509L7.76,11.704l-3.767,3.764l-0.269-0.27l7.263-7.262l1.076,1.074
		L8.566,12.509z"/>
</g>
</svg>
