<?xml version="1.0" encoding="utf-8"?>
<!-- Generator: Adobe Illustrator 16.0.0, SVG Export Plug-In . SVG Version: 6.00 Build 0)  -->
<!DOCTYPE svg PUBLIC "-//W3C//DTD SVG 1.1//EN" "http://www.w3.org/Graphics/SVG/1.1/DTD/svg11.dtd">
<svg version="1.1" id="Layer_1" xmlns="http://www.w3.org/2000/svg" xmlns:xlink="http://www.w3.org/1999/xlink" x="0px" y="0px"
	 width="20px" height="20px" viewBox="0 0 20 20" enable-background="new 0 0 20 20" xml:space="preserve">
<g>
	<path d="M18,8.757v2.313c0,0.083-0.027,0.163-0.084,0.239c-0.055,0.077-0.123,0.122-0.208,0.136l-1.927,0.292
		c-0.133,0.375-0.268,0.691-0.406,0.948c0.244,0.348,0.615,0.827,1.114,1.438c0.071,0.083,0.104,0.17,0.104,0.26
		c0,0.091-0.031,0.171-0.093,0.24c-0.189,0.256-0.531,0.631-1.032,1.125c-0.499,0.493-0.827,0.74-0.98,0.74
		c-0.082,0-0.173-0.031-0.269-0.094l-1.438-1.125c-0.306,0.16-0.622,0.292-0.948,0.396c-0.111,0.944-0.211,1.59-0.303,1.938
		c-0.048,0.194-0.174,0.292-0.374,0.292H8.845c-0.099,0-0.183-0.029-0.256-0.089c-0.072-0.059-0.113-0.134-0.12-0.224l-0.292-1.917
		c-0.339-0.111-0.651-0.239-0.936-0.385l-1.471,1.114c-0.068,0.063-0.154,0.094-0.259,0.094c-0.099,0-0.186-0.038-0.261-0.114
		c-0.875-0.792-1.449-1.375-1.72-1.75c-0.048-0.069-0.073-0.149-0.073-0.24c0-0.083,0.028-0.163,0.085-0.239
		c0.104-0.146,0.28-0.376,0.53-0.693c0.251-0.315,0.438-0.56,0.563-0.734c-0.188-0.347-0.331-0.691-0.429-1.032l-1.905-0.281
		c-0.091-0.014-0.164-0.058-0.219-0.131C2.027,11.199,2,11.118,2,11.027V8.715c0-0.083,0.027-0.163,0.084-0.24
		c0.055-0.076,0.121-0.121,0.198-0.134l1.937-0.292C4.317,7.729,4.451,7.41,4.625,7.09C4.348,6.695,3.976,6.215,3.511,5.653
		C3.442,5.57,3.406,5.486,3.406,5.402c0-0.069,0.031-0.149,0.095-0.239c0.181-0.25,0.522-0.624,1.025-1.12
		C5.03,3.547,5.358,3.298,5.512,3.298c0.088,0,0.18,0.035,0.271,0.104L7.22,4.518c0.306-0.16,0.62-0.292,0.948-0.396
		c0.109-0.944,0.209-1.59,0.301-1.938C8.517,1.99,8.643,1.893,8.845,1.893h2.312c0.097,0,0.183,0.029,0.256,0.089
		c0.073,0.059,0.111,0.133,0.118,0.223l0.292,1.917c0.339,0.111,0.653,0.239,0.938,0.385l1.479-1.114
		c0.062-0.063,0.146-0.095,0.248-0.095c0.092,0,0.179,0.035,0.263,0.104c0.895,0.827,1.467,1.417,1.718,1.771
		c0.048,0.056,0.073,0.132,0.073,0.229c0,0.083-0.028,0.165-0.085,0.241c-0.102,0.146-0.28,0.376-0.53,0.693
		c-0.248,0.315-0.438,0.56-0.563,0.734c0.183,0.347,0.324,0.688,0.429,1.021l1.905,0.292c0.091,0.013,0.164,0.057,0.219,0.129
		C17.973,8.584,18,8.667,18,8.757z M11.887,11.778c0.52-0.521,0.779-1.149,0.779-1.885s-0.26-1.365-0.779-1.885
		C11.364,7.486,10.736,7.226,10,7.226S8.636,7.486,8.116,8.007C7.594,8.528,7.334,9.156,7.334,9.893s0.26,1.365,0.782,1.885
		c0.52,0.521,1.147,0.781,1.884,0.781S11.364,12.299,11.887,11.778z"/>
</g>
</svg>
