<?xml version="1.0" encoding="utf-8"?>
<!-- Generator: Adobe Illustrator 16.0.0, SVG Export Plug-In . SVG Version: 6.00 Build 0)  -->
<!DOCTYPE svg PUBLIC "-//W3C//DTD SVG 1.1//EN" "http://www.w3.org/Graphics/SVG/1.1/DTD/svg11.dtd">
<svg version="1.1" id="Layer_1" xmlns="http://www.w3.org/2000/svg" xmlns:xlink="http://www.w3.org/1999/xlink" x="0px" y="0px"
	 width="20px" height="20px" viewBox="0 0 20 20" enable-background="new 0 0 20 20" xml:space="preserve">
<g>
	<path d="M16.929,5.317C17.643,6.342,18,7.458,18,8.666s-0.357,2.324-1.071,3.348c-0.715,1.024-1.685,1.833-2.911,2.427
		c-1.226,0.594-2.565,0.89-4.018,0.89c-0.417,0-0.848-0.028-1.294-0.083c-1.179,1.215-2.548,2.055-4.107,2.521
		c-0.292,0.097-0.631,0.173-1.018,0.229c-0.102,0.014-0.192-0.017-0.272-0.093c-0.081-0.077-0.133-0.177-0.156-0.302v-0.01
		c-0.018-0.028-0.02-0.07-0.004-0.125c0.015-0.056,0.021-0.09,0.018-0.104c-0.003-0.014,0.01-0.047,0.041-0.099
		c0.029-0.052,0.047-0.083,0.053-0.094c0.006-0.01,0.027-0.04,0.062-0.088s0.06-0.08,0.072-0.094
		c0.042-0.055,0.134-0.175,0.276-0.359c0.143-0.185,0.246-0.316,0.308-0.396c0.062-0.081,0.155-0.217,0.277-0.412
		c0.122-0.194,0.219-0.371,0.29-0.531c0.072-0.159,0.152-0.364,0.241-0.614s0.167-0.514,0.232-0.792
		c-0.935-0.618-1.671-1.381-2.21-2.291C2.269,10.683,2,9.707,2,8.666C2,7.763,2.211,6.9,2.634,6.077
		c0.423-0.822,0.991-1.532,1.706-2.129s1.565-1.071,2.554-1.421C7.881,2.175,8.917,2,10,2c1.452,0,2.792,0.297,4.018,0.891
		C15.244,3.484,16.214,4.293,16.929,5.317z"/>
</g>
</svg>
