<?xml version="1.0" encoding="utf-8"?>
<!-- Generator: Adobe Illustrator 16.0.0, SVG Export Plug-In . SVG Version: 6.00 Build 0)  -->
<!DOCTYPE svg PUBLIC "-//W3C//DTD SVG 1.1//EN" "http://www.w3.org/Graphics/SVG/1.1/DTD/svg11.dtd">
<svg version="1.1" id="Layer_1" xmlns="http://www.w3.org/2000/svg" xmlns:xlink="http://www.w3.org/1999/xlink" x="0px" y="0px"
	 width="20px" height="20px" viewBox="0 0 20 20" enable-background="new 0 0 20 20" xml:space="preserve">
<g>
	<path d="M18,4v1.333c0,0.18-0.066,0.337-0.198,0.468C17.669,5.934,17.514,6,17.333,6H2.667c-0.18,0-0.336-0.066-0.468-0.198
		C2.066,5.671,2,5.514,2,5.333V4c0-0.181,0.066-0.337,0.198-0.469s0.288-0.198,0.468-0.198h14.667c0.18,0,0.336,0.066,0.468,0.198
		S18,3.819,18,4z M18,9.333v1.334c0,0.18-0.066,0.336-0.198,0.468s-0.288,0.198-0.468,0.198H2.667c-0.18,0-0.336-0.066-0.468-0.198
		S2,10.847,2,10.667V9.333c0-0.18,0.066-0.336,0.198-0.468c0.132-0.131,0.288-0.197,0.468-0.197h14.667
		c0.18,0,0.336,0.066,0.468,0.197C17.934,8.996,18,9.152,18,9.333z M18,14.666v1.333c0,0.181-0.066,0.338-0.198,0.47
		s-0.288,0.198-0.468,0.198H2.667c-0.18,0-0.336-0.066-0.468-0.198S2,16.18,2,15.999v-1.333c0-0.18,0.066-0.337,0.198-0.469
		c0.132-0.133,0.288-0.198,0.468-0.198h14.667c0.18,0,0.336,0.065,0.468,0.198C17.934,14.329,18,14.486,18,14.666z"/>
</g>
</svg>
