<svg width="372" height="116" viewBox="0 0 372 116" fill="none" xmlns="http://www.w3.org/2000/svg">
<path d="M161.156 92.4862L145.238 30.8287H156.758L167.325 77.5236H167.801L179.275 30.8287H192.086L203.56 77.5236H203.99L214.603 30.8287H226.077L210.201 92.4862H196.957L185.913 46.2622H185.437L174.393 92.4862H161.148H161.156Z" fill="#453F4C"/>
<path d="M232.286 87.555C228.604 83.3657 226.762 77.3606 226.762 69.5397C226.762 61.7189 228.604 55.76 232.286 51.5245C235.969 47.3351 240.849 45.2155 246.93 45.2155C253.01 45.2155 257.718 47.9353 260.501 51.8668H260.974V51.5014C260.974 48.5277 263.364 46.1195 266.311 46.1195H270.608V92.9946H260.986L260.974 87.2473H260.501C257.718 91.1789 252.751 93.8563 246.93 93.8563C241.108 93.8563 235.969 91.7405 232.286 87.5473V87.555ZM248.683 84.5736C252.152 84.5736 254.977 83.2772 257.204 80.7305C259.388 78.18 260.501 74.4215 260.501 69.5397C260.501 64.658 259.388 60.8995 257.204 58.349C254.977 55.7984 252.152 54.502 248.683 54.502C245.214 54.502 242.389 55.7984 240.163 58.349C237.936 60.8956 236.823 64.658 236.823 69.5397C236.823 74.4215 237.936 78.18 240.163 80.7305C242.389 83.2772 245.214 84.5736 248.683 84.5736Z" fill="#453F4C"/>
<path d="M278.325 95.3168H288.963C290.26 99.1396 293.806 101.028 299.601 101.07C306.693 101.07 311.101 97.5073 311.101 91.3679V83.8982H310.67C309.415 85.5726 307.644 87.0329 305.264 88.2332C302.885 89.4795 300.29 90.0796 297.395 90.0796C291.469 90.0796 286.672 88.1032 282.995 84.1543C279.322 80.2474 277.459 74.7082 277.459 67.6246C277.459 60.541 279.318 55.0438 282.995 51.0949C286.672 47.188 291.469 45.2155 297.395 45.2155C303.32 45.2155 308.29 47.9182 311.101 51.825H311.532V46.1138H321.304V91.3641C321.304 103.341 313.65 110.298 299.597 110.298C288.312 110.298 281.22 105.317 278.325 95.313V95.3168ZM307.728 77.2848C309.977 74.9223 311.101 71.7035 311.101 67.6246C311.101 63.5457 309.977 60.369 307.686 58.0065C305.395 55.644 302.585 54.4437 299.169 54.4437C295.754 54.4437 292.944 55.602 290.826 57.9644C288.709 60.3269 287.627 63.5457 287.627 67.6246C287.627 71.7035 288.709 74.9643 290.869 77.3268C293.032 79.6893 295.843 80.8476 299.258 80.8476C302.673 80.8476 305.441 79.6473 307.732 77.2848H307.728Z" fill="#453F4C"/>
<path d="M333.679 87.555C329.996 83.3657 328.155 77.3606 328.155 69.5397C328.155 61.7189 329.996 55.76 333.679 51.5245C337.361 47.3351 342.241 45.2155 348.322 45.2155C354.402 45.2155 359.111 47.9353 361.894 51.8668H362.366V51.4937C362.374 48.5238 364.76 46.1195 367.704 46.1195H372V92.9946H362.382L362.37 87.2473H361.897C359.114 91.1789 354.147 93.8563 348.326 93.8563C342.504 93.8563 337.365 91.7405 333.683 87.5473L333.679 87.555ZM350.075 84.5736C353.545 84.5736 356.37 83.2772 358.596 80.7305C360.78 78.18 361.894 74.4215 361.894 69.5397C361.894 64.658 360.78 60.8995 358.596 58.349C356.37 55.7984 353.545 54.502 350.075 54.502C346.606 54.502 343.781 55.7984 341.555 58.349C339.329 60.8956 338.215 64.658 338.215 69.5397C338.215 74.4215 339.329 78.18 341.555 80.7305C343.781 83.2772 346.606 84.5736 350.075 84.5736Z" fill="#453F4C"/>
<path d="M122.63 0V76.2804C122.63 77.1935 122.599 78.1027 122.534 79.0005C122.116 85.1388 120.289 90.8858 117.373 95.9116C115.752 98.7122 113.79 101.29 111.548 103.585C111.41 103.723 111.276 103.861 111.138 103.995C111.108 104.03 111.073 104.06 111.042 104.091C108.751 106.358 106.176 108.33 103.379 109.957C102.176 110.655 100.93 111.292 99.6466 111.86C96.0676 113.448 92.2013 114.495 88.1511 114.902C87.1012 115.006 86.0398 115.071 84.9669 115.086C84.7523 115.094 84.5339 115.094 84.3193 115.094C84.1047 115.094 83.8824 115.094 83.664 115.086C81.2653 115.048 78.9241 114.783 76.6556 114.319C72.5479 113.471 68.6739 111.963 65.1602 109.899C65.1295 109.88 65.0988 109.865 65.0682 109.842C63.7692 109.082 62.5239 108.242 61.3283 107.333C61.3207 107.325 61.313 107.321 61.3053 107.314C59.9642 106.297 58.6959 105.188 57.5003 103.999H57.4965C57.4659 103.964 57.4352 103.934 57.4045 103.903C57.2973 103.799 57.1938 103.692 57.0865 103.585C57.0788 103.573 57.075 103.569 57.0673 103.562C55.6955 102.157 54.4272 100.646 53.2815 99.0383C52.565 98.0408 51.8752 96.9781 51.2545 95.9116C47.9055 90.1454 45.9857 83.4278 45.9857 76.2574V40.2599C45.9857 34.9617 41.6979 30.6687 36.4062 30.6687H11.4955V76.361C11.4955 76.4761 11.4955 76.5912 11.4955 76.7063C11.4955 76.8214 11.4955 76.9403 11.4955 77.0554C11.6066 86.0404 16.1281 93.9589 22.9909 98.7468C26.3438 101.091 30.2561 102.683 34.4864 103.289C35.7356 103.469 37.0154 103.562 38.3144 103.562C41.0043 103.562 43.6023 103.166 46.0547 102.422C48.3538 105.833 51.0897 108.913 54.1896 111.591C51.5955 112.792 48.8442 113.705 45.978 114.296C43.5027 114.802 40.9392 115.071 38.3144 115.071C37.0231 115.071 35.7432 115.006 34.4826 114.879C30.4323 114.472 26.566 113.425 22.9871 111.837C18.684 109.938 14.7947 107.26 11.4916 103.972C11.3537 103.838 11.2157 103.7 11.0816 103.562C4.23033 96.5485 0 86.8998 0 76.2574V19.1593H38.3144C48.8941 19.1593 57.4735 27.7491 57.4735 38.3416V76.7063C57.4735 76.8214 57.4735 76.9403 57.4735 77.0554C57.5348 81.9891 58.9526 86.6312 61.3245 90.5789C61.5889 91.0163 61.8648 91.446 62.1522 91.868C62.4779 92.3437 62.8189 92.8079 63.1753 93.2606C63.3055 93.4333 63.4435 93.6059 63.5853 93.7747C64.0528 94.3463 64.5471 94.8988 65.0605 95.4282C65.0912 95.4627 65.1218 95.4934 65.1525 95.5241C65.2828 95.6546 65.4092 95.785 65.5433 95.9116C65.8346 96.2032 66.1373 96.4832 66.4438 96.7556C66.5549 96.8592 66.6699 96.959 66.7848 97.0587C66.8806 97.1431 66.9803 97.2275 67.0799 97.3081C67.8118 97.9258 68.5781 98.5012 69.3713 99.0345C71.5861 100.523 74.0308 101.693 76.648 102.468C79.0773 103.197 81.6485 103.585 84.3116 103.585C85.6144 103.585 86.8904 103.492 88.1434 103.308C92.3738 102.706 96.286 101.11 99.6389 98.7659C100.861 97.9104 102.015 96.9551 103.076 95.9116C103.176 95.8157 103.275 95.7159 103.371 95.6162C107.678 91.2618 110.506 85.4419 111.035 78.9698C111.1 78.2293 111.131 77.4851 111.131 76.7293V11.5094H86.2275C80.9358 11.5094 76.648 15.8024 76.648 21.1006V76.2804C76.648 82.039 75.4103 87.5021 73.1878 92.4166C68.6318 89.2016 65.5395 84.0454 65.1142 78.1488C65.141 77.6769 65.1525 77.205 65.1525 76.7293V19.1823C65.1525 8.58984 73.7319 0 84.3116 0H122.626H122.63Z" fill="url(#paint0_linear_601_295)"/>
<path d="M122.63 0V76.2804C122.63 77.1935 122.599 78.1027 122.534 79.0005C122.116 85.1388 120.289 90.8858 117.373 95.9116C115.752 98.7122 113.79 101.29 111.548 103.585C111.41 103.723 111.276 103.861 111.138 103.995C111.108 104.03 111.073 104.06 111.042 104.091C108.751 106.358 106.176 108.33 103.379 109.957C102.176 110.655 100.93 111.292 99.6466 111.86C96.0676 113.448 92.2013 114.495 88.1511 114.902C87.1012 115.006 86.0398 115.071 84.9669 115.086C84.7523 115.094 84.5339 115.094 84.3193 115.094C84.1047 115.094 83.8824 115.094 83.664 115.086C81.2653 115.048 78.9241 114.783 76.6556 114.319C72.5479 113.471 68.6739 111.963 65.1602 109.899C65.1295 109.88 65.0988 109.865 65.0682 109.842C63.7692 109.082 62.5239 108.242 61.3283 107.333C61.3207 107.325 61.313 107.321 61.3053 107.314C59.9642 106.297 58.6959 105.188 57.5003 103.999H57.4965C57.4659 103.964 57.4352 103.934 57.4045 103.903C57.2973 103.799 57.1938 103.692 57.0865 103.585C57.0788 103.573 57.075 103.569 57.0673 103.562C55.6955 102.157 54.4272 100.646 53.2815 99.0383C52.565 98.0408 51.8752 96.9781 51.2545 95.9116C47.9055 90.1454 45.9857 83.4278 45.9857 76.2574V40.2599C45.9857 34.9617 41.6979 30.6687 36.4062 30.6687H11.4955V76.361C11.4955 76.4761 11.4955 76.5912 11.4955 76.7063C11.4955 76.8214 11.4955 76.9403 11.4955 77.0554C11.6066 86.0404 16.1281 93.9589 22.9909 98.7468C26.3438 101.091 30.2561 102.683 34.4864 103.289C35.7356 103.469 37.0154 103.562 38.3144 103.562C41.0043 103.562 43.6023 103.166 46.0547 102.422C48.3538 105.833 51.0897 108.913 54.1896 111.591C51.5955 112.792 48.8442 113.705 45.978 114.296C43.5027 114.802 40.9392 115.071 38.3144 115.071C37.0231 115.071 35.7432 115.006 34.4826 114.879C30.4323 114.472 26.566 113.425 22.9871 111.837C18.684 109.938 14.7947 107.26 11.4916 103.972C11.3537 103.838 11.2157 103.7 11.0816 103.562C4.23033 96.5485 0 86.8998 0 76.2574V19.1593H38.3144C48.8941 19.1593 57.4735 27.7491 57.4735 38.3416V76.7063C57.4735 76.8214 57.4735 76.9403 57.4735 77.0554C57.5348 81.9891 58.9526 86.6312 61.3245 90.5789C61.5889 91.0163 61.8648 91.446 62.1522 91.868C62.4779 92.3437 62.8189 92.8079 63.1753 93.2606C63.3055 93.4333 63.4435 93.6059 63.5853 93.7747C64.0528 94.3463 64.5471 94.8988 65.0605 95.4282C65.0912 95.4627 65.1218 95.4934 65.1525 95.5241C65.2828 95.6546 65.4092 95.785 65.5433 95.9116C65.8346 96.2032 66.1373 96.4832 66.4438 96.7556C66.5549 96.8592 66.6699 96.959 66.7848 97.0587C66.8806 97.1431 66.9803 97.2275 67.0799 97.3081C67.8118 97.9258 68.5781 98.5012 69.3713 99.0345C71.5861 100.523 74.0308 101.693 76.648 102.468C79.0773 103.197 81.6485 103.585 84.3116 103.585C85.6144 103.585 86.8904 103.492 88.1434 103.308C92.3738 102.706 96.286 101.11 99.6389 98.7659C100.861 97.9104 102.015 96.9551 103.076 95.9116C103.176 95.8157 103.275 95.7159 103.371 95.6162C107.678 91.2618 110.506 85.4419 111.035 78.9698C111.1 78.2293 111.131 77.4851 111.131 76.7293V11.5094H86.2275C80.9358 11.5094 76.648 15.8024 76.648 21.1006V76.2804C76.648 82.039 75.4103 87.5021 73.1878 92.4166C68.6318 89.2016 65.5395 84.0454 65.1142 78.1488C65.141 77.6769 65.1525 77.205 65.1525 76.7293V19.1823C65.1525 8.58984 73.7319 0 84.3116 0H122.626H122.63Z" fill="url(#paint1_linear_601_295)"/>
<defs>
<linearGradient id="paint0_linear_601_295" x1="12.3576" y1="104.839" x2="119.982" y2="-2.65117" gradientUnits="userSpaceOnUse">
<stop stop-color="#6552AA"/>
<stop offset="0.16" stop-color="#4E6BA7"/>
<stop offset="0.37" stop-color="#3688A4"/>
<stop offset="0.59" stop-color="#249DA2"/>
<stop offset="0.8" stop-color="#19A9A1"/>
<stop offset="1" stop-color="#16AEA1"/>
</linearGradient>
<linearGradient id="paint1_linear_601_295" x1="12.3576" y1="104.839" x2="119.982" y2="-2.65117" gradientUnits="userSpaceOnUse">
<stop stop-color="#6552AA"/>
<stop offset="0.16" stop-color="#4E6BA7"/>
<stop offset="0.37" stop-color="#3688A4"/>
<stop offset="0.59" stop-color="#249DA2"/>
<stop offset="0.8" stop-color="#19A9A1"/>
<stop offset="1" stop-color="#16AEA1"/>
</linearGradient>
</defs>
</svg>
