<svg width="40" height="40" viewBox="0 0 40 40" fill="none" xmlns="http://www.w3.org/2000/svg">
<g id="Icon Big">
<mask id="mask0_1722_604" style="mask-type:alpha" maskUnits="userSpaceOnUse" x="0" y="0" width="40" height="40">
<rect id="Bounding box" width="40" height="40" fill="#D9D9D9"/>
</mask>
<g mask="url(#mask0_1722_604)">
<path id="call" d="M31.5107 33.3334C28.7821 33.3334 25.9491 32.6231 23.0117 31.2025C20.0744 29.782 17.3262 27.7868 14.7671 25.217C12.208 22.6472 10.2181 19.8989 8.79753 16.9723C7.37695 14.0457 6.66666 11.218 6.66666 8.48937C6.66666 7.96862 6.83718 7.53466 7.17824 7.1875C7.51932 6.84033 7.94566 6.66675 8.45724 6.66675H12.2826C12.7537 6.66675 13.1524 6.81044 13.4786 7.09783C13.8048 7.38522 14.032 7.76359 14.1602 8.23296L15.0129 12.0222C15.0769 12.4718 15.0577 12.8719 14.9551 13.2223C14.8526 13.5727 14.6738 13.8612 14.4189 14.0875L10.7275 17.5321C11.4654 18.832 12.2552 20.0327 13.0967 21.1342C13.9382 22.2357 14.8322 23.2672 15.7788 24.2287C16.8009 25.2693 17.8989 26.2236 19.0727 27.0914C20.2464 27.9593 21.5292 28.7743 22.9209 29.5364L26.5128 25.8612C26.7885 25.5599 27.0903 25.3603 27.4184 25.2624C27.7466 25.1644 28.1106 25.1432 28.5107 25.1988L31.7671 25.9039C32.2386 26.0008 32.6175 26.2295 32.9039 26.59C33.1902 26.9504 33.3333 27.3635 33.3333 27.8292V31.5428C33.3333 32.0544 33.1597 32.4807 32.8126 32.8218C32.4654 33.1629 32.0315 33.3334 31.5107 33.3334ZM10.0395 16.2522L13.4412 13.1005C13.5338 13.015 13.5961 12.8975 13.6282 12.748C13.6603 12.5984 13.662 12.4595 13.6335 12.3313L12.8119 8.58983C12.7834 8.41889 12.7122 8.29068 12.5983 8.20521C12.4843 8.11973 12.3419 8.077 12.1709 8.077H8.52882C8.40063 8.077 8.2938 8.11973 8.20832 8.20521C8.12285 8.29068 8.08012 8.39751 8.08012 8.52571C8.08509 9.66887 8.25888 10.8882 8.60149 12.1838C8.94407 13.4794 9.42342 14.8355 10.0395 16.2522ZM24.2788 30.1967C25.4135 30.7772 26.6519 31.2088 27.9941 31.4915C29.3364 31.7743 30.4964 31.9232 31.4744 31.9381C31.6026 31.9381 31.7094 31.8954 31.7949 31.8099C31.8803 31.7244 31.9231 31.6176 31.9231 31.4894V27.8932C31.9231 27.7223 31.8803 27.5799 31.7949 27.4659C31.7094 27.3519 31.5812 27.2807 31.4102 27.2522L28.2051 26.5866C28.0769 26.5581 27.9647 26.5599 27.8686 26.592C27.7724 26.624 27.6709 26.6863 27.5641 26.7789L24.2788 30.1967Z" fill="#1C1B1F"/>
</g>
</g>
</svg>
