<svg width="40" height="40" viewBox="0 0 40 40" fill="none" xmlns="http://www.w3.org/2000/svg">
<g id="Icon Big">
<mask id="mask0_1722_609" style="mask-type:alpha" maskUnits="userSpaceOnUse" x="0" y="0" width="40" height="40">
<rect id="Bounding box" width="40" height="40" fill="#D9D9D9"/>
</mask>
<g mask="url(#mask0_1722_609)">
<path id="mail" d="M7.43587 31.6666C6.75318 31.6666 6.17653 31.4313 5.70592 30.9607C5.23531 30.4901 5 29.9134 5 29.2307V10.7691C5 10.0864 5.23531 9.50978 5.70592 9.03917C6.17653 8.56856 6.75318 8.33325 7.43587 8.33325H32.5641C33.2468 8.33325 33.8235 8.56856 34.2941 9.03917C34.7647 9.50978 35 10.0864 35 10.7691V29.2307C35 29.9134 34.7647 30.4901 34.2941 30.9607C33.8235 31.4313 33.2468 31.6666 32.5641 31.6666H7.43587ZM20 19.9016L6.41025 10.8867V29.2307C6.41025 29.5299 6.5064 29.7756 6.69871 29.9679C6.89101 30.1602 7.13674 30.2563 7.43587 30.2563H32.5641C32.8633 30.2563 33.109 30.1602 33.3013 29.9679C33.4936 29.7756 33.5898 29.5299 33.5898 29.2307V10.8867L20 19.9016ZM20 18.299L33.0299 9.7435H6.99783L20 18.299ZM6.41025 10.8867V9.7435V29.2307C6.41025 29.5299 6.5064 29.7756 6.69871 29.9679C6.89101 30.1602 7.13674 30.2563 7.43587 30.2563H6.41025V10.8867Z" fill="#1C1B1F"/>
</g>
</g>
</svg>
