<svg width="264" height="40" viewBox="0 0 264 40" fill="none" xmlns="http://www.w3.org/2000/svg">
<g clip-path="url(#clip0_1719_1701)">
<path d="M30.7452 17.2625H28.5314C28.3802 17.2625 28.2514 17.3725 28.2278 17.522L27.3325 23.1981C27.3147 23.3101 27.4015 23.411 27.5144 23.411H28.6505C28.756 23.411 28.8463 23.334 28.8628 23.2291L29.1169 21.6202C29.1402 21.4704 29.2693 21.3603 29.4205 21.3603H30.1209C31.5793 21.3603 32.4205 20.6547 32.6406 19.2565C32.7399 18.6448 32.6444 18.1642 32.358 17.8276C32.0437 17.4579 31.4861 17.2625 30.7452 17.2625ZM31.0006 19.3355C30.8798 20.1298 30.273 20.1298 29.6859 20.1298H29.3522L29.5868 18.6464C29.6007 18.5568 29.6778 18.4907 29.7687 18.4907H29.9218C30.3212 18.4907 30.6986 18.4907 30.8934 18.7186C31.0096 18.8545 31.0449 19.0565 31.0006 19.3355Z" fill="#179BD7"/>
<path d="M37.3614 19.3101H36.3021C36.2112 19.3101 36.1338 19.3762 36.1202 19.4658L36.0733 19.7623L35.9988 19.6548C35.7694 19.3218 35.258 19.2104 34.7472 19.2104C33.5759 19.2104 32.5758 20.0976 32.381 21.3421C32.28 21.9629 32.4234 22.5565 32.7755 22.9704C33.0992 23.351 33.5607 23.5096 34.1106 23.5096C35.0544 23.5096 35.5777 22.9028 35.5777 22.9028L35.5305 23.1973C35.5127 23.3099 35.5994 23.4109 35.713 23.4109H36.6675C36.8187 23.4109 36.9475 23.3009 36.9711 23.151L37.5443 19.5231C37.5618 19.4114 37.475 19.3101 37.3614 19.3101ZM35.8839 21.3731C35.7823 21.9787 35.301 22.3852 34.688 22.3852C34.3809 22.3852 34.1342 22.2865 33.9763 22.0994C33.8196 21.9137 33.7607 21.6492 33.8099 21.3547C33.906 20.7543 34.3941 20.3345 34.9977 20.3345C35.2988 20.3345 35.5434 20.4345 35.7046 20.6232C35.8668 20.8139 35.9309 21.0799 35.8839 21.3731Z" fill="#179BD7"/>
<path d="M38.6112 17.4182L37.7026 23.1981C37.6848 23.3101 37.7716 23.4111 37.8845 23.4111H38.7979C38.9497 23.4111 39.0785 23.3011 39.1018 23.1512L39.9977 17.4755C40.0155 17.3635 39.9288 17.2622 39.8158 17.2622H38.7931C38.7028 17.2625 38.6251 17.3286 38.6112 17.4182Z" fill="#179BD7"/>
<path d="M14.9566 17.2625H12.7431C12.5916 17.2625 12.4628 17.3725 12.4392 17.522L11.5439 23.1981C11.5261 23.3101 11.6129 23.411 11.7265 23.411H12.7832C12.9347 23.411 13.0635 23.301 13.0872 23.1511L13.3286 21.6202C13.3519 21.4704 13.4811 21.3603 13.6322 21.3603H14.3329C15.791 21.3603 16.6325 20.6547 16.8523 19.2565C16.9513 18.6448 16.8565 18.1642 16.5701 17.8276C16.2555 17.4579 15.6975 17.2625 14.9566 17.2625ZM15.212 19.3355C15.0909 20.1298 14.4841 20.1298 13.8973 20.1298H13.5633L13.7976 18.6464C13.8115 18.5568 13.8892 18.4907 13.9798 18.4907H14.1329C14.5326 18.4907 14.9097 18.4907 15.1045 18.7186C15.2207 18.8545 15.2563 19.0565 15.212 19.3355Z" fill="#253B80"/>
<path d="M21.5733 19.3099H20.5133C20.423 19.3099 20.345 19.3759 20.3311 19.4656L20.2842 19.762L20.21 19.6546C19.9806 19.3215 19.4689 19.2102 18.9581 19.2102C17.7868 19.2102 16.7864 20.0974 16.5915 21.3418C16.4902 21.9626 16.6342 22.5562 16.9864 22.9702C17.3094 23.3508 17.7716 23.5094 18.3215 23.5094C19.2653 23.5094 19.7886 22.9025 19.7886 22.9025L19.7414 23.1971C19.7236 23.3097 19.8103 23.4107 19.9233 23.4107H20.8781C21.0299 23.4107 21.158 23.3006 21.182 23.1508L21.7549 19.5229C21.773 19.4112 21.6866 19.3099 21.5733 19.3099ZM20.0958 21.3729C19.9935 21.9785 19.5129 22.385 18.8999 22.385C18.5921 22.385 18.3461 22.2863 18.1881 22.0992C18.0315 21.9134 17.9719 21.649 18.0218 21.3545C18.1172 20.7541 18.606 20.3343 19.2096 20.3343C19.5106 20.3343 19.7553 20.4343 19.9165 20.623C20.078 20.8136 20.1421 21.0797 20.0958 21.3729Z" fill="#253B80"/>
<path d="M27.2186 19.3098H26.1534C26.0518 19.3098 25.9563 19.3603 25.8987 19.4448L24.4296 21.6088L23.8069 19.5293C23.7677 19.3991 23.6476 19.3098 23.5117 19.3098H22.465C22.3378 19.3098 22.2494 19.4341 22.2899 19.5539L23.4631 22.997L22.3601 24.5541C22.2734 24.6768 22.3608 24.8454 22.5106 24.8454H23.5745C23.6755 24.8454 23.77 24.7962 23.8273 24.7133L27.3701 19.5995C27.4549 19.4771 27.3678 19.3098 27.2186 19.3098Z" fill="#253B80"/>
<path d="M2.35173 24.5142L2.521 23.439L2.14394 23.4303H0.343414L1.59469 15.4964C1.59857 15.4725 1.61119 15.4501 1.62964 15.4343C1.64809 15.4184 1.67172 15.4097 1.69632 15.4097H4.73225C5.74013 15.4097 6.43568 15.6194 6.79883 16.0334C6.96907 16.2276 7.0775 16.4305 7.12993 16.6538C7.18495 16.8882 7.18593 17.1681 7.1322 17.5096L7.12831 17.5345V17.7533L7.29856 17.8497C7.44194 17.9258 7.55587 18.0129 7.64326 18.1126C7.78891 18.2786 7.88309 18.4896 7.9229 18.7398C7.96401 18.9971 7.95041 19.3033 7.88309 19.6499C7.80541 20.0487 7.67983 20.396 7.51023 20.6802C7.35423 20.942 7.1555 21.1592 6.91955 21.3275C6.69428 21.4874 6.42662 21.6087 6.12399 21.6864C5.83076 21.7628 5.49642 21.8013 5.12971 21.8013H4.89344C4.72449 21.8013 4.56039 21.8622 4.43157 21.9712C4.30243 22.0826 4.21699 22.2347 4.19077 22.4011L4.17297 22.4978L3.87391 24.3929L3.86031 24.4625C3.85675 24.4845 3.8506 24.4955 3.84154 24.5029C3.83345 24.5097 3.8218 24.5142 3.81047 24.5142H2.35173Z" fill="#253B80"/>
<path d="M7.45978 17.5596C7.45072 17.6175 7.44036 17.6767 7.42871 17.7376C7.02834 19.7932 5.65861 20.5033 3.90922 20.5033H3.01851C2.80457 20.5033 2.62429 20.6586 2.59095 20.8696L2.13491 23.7619L2.00577 24.5817C1.98409 24.7202 2.0909 24.8452 2.23072 24.8452H3.81051C3.99758 24.8452 4.1565 24.7092 4.18595 24.5247L4.20149 24.4445L4.49893 22.5569L4.51803 22.4533C4.54716 22.2682 4.7064 22.1322 4.89347 22.1322H5.12975C6.66034 22.1322 7.85853 21.5108 8.20873 19.7126C8.35503 18.9613 8.27929 18.3341 7.89219 17.8929C7.77503 17.7599 7.6297 17.6495 7.45978 17.5596Z" fill="#179BD7"/>
<path d="M7.04088 17.3927C6.97971 17.3749 6.91659 17.3587 6.85186 17.3442C6.7868 17.3299 6.72013 17.3173 6.65151 17.3063C6.41136 17.2675 6.14822 17.249 5.86631 17.249H3.48676C3.42818 17.249 3.37251 17.2623 3.32266 17.2862C3.21294 17.339 3.13138 17.4429 3.11164 17.5701L2.60543 20.7763L2.59087 20.8698C2.6242 20.6588 2.80448 20.5034 3.01842 20.5034H3.90914C5.65852 20.5034 7.02825 19.793 7.42862 17.7378C7.4406 17.6769 7.45063 17.6177 7.45969 17.5597C7.35839 17.506 7.24867 17.4601 7.13053 17.4209C7.1014 17.4112 7.0713 17.4018 7.04088 17.3927Z" fill="#222D65"/>
<path d="M3.11167 17.57C3.13141 17.4428 3.21298 17.3389 3.3227 17.2865C3.37286 17.2625 3.42821 17.2492 3.48679 17.2492H5.86635C6.14826 17.2492 6.41139 17.2677 6.65155 17.3065C6.72016 17.3175 6.78684 17.3302 6.85189 17.3444C6.91663 17.359 6.97974 17.3751 7.04091 17.3929C7.07134 17.402 7.10144 17.4114 7.13089 17.4208C7.24903 17.4599 7.35875 17.5062 7.46005 17.5596C7.57916 16.8 7.45908 16.2828 7.04836 15.8145C6.59555 15.2989 5.77831 15.0781 4.73256 15.0781H1.69663C1.48301 15.0781 1.30079 15.2335 1.26778 15.4448L0.00323299 23.4603C-0.0216889 23.6189 0.100655 23.7619 0.260543 23.7619H2.13486L2.60547 20.7762L3.11167 17.57Z" fill="#253B80"/>
</g>
<path d="M68.3268 12.2388H59.6738V27.7883H68.3268V12.2388Z" fill="#FF5F00"/>
<path d="M60.2232 20.014C60.2218 18.5165 60.5611 17.0383 61.2155 15.6913C61.8699 14.3443 62.8222 13.1638 64.0002 12.2393C62.5414 11.0926 60.7893 10.3795 58.9444 10.1815C57.0994 9.98346 55.236 10.3085 53.567 11.1195C51.8981 11.9305 50.491 13.1946 49.5065 14.7675C48.5221 16.3404 48 18.1585 48 20.014C48 21.8696 48.5221 23.6877 49.5065 25.2606C50.491 26.8335 51.8981 28.0976 53.567 28.9086C55.236 29.7196 57.0994 30.0446 58.9444 29.8466C60.7893 29.6486 62.5414 28.9355 64.0002 27.7888C62.8222 26.8642 61.8699 25.6838 61.2155 24.3368C60.5612 22.9898 60.2218 21.5116 60.2232 20.014Z" fill="#EB001B"/>
<path d="M80 20.014C80.0001 21.8696 79.4781 23.6877 78.4937 25.2606C77.5093 26.8334 76.1022 28.0976 74.4333 28.9086C72.7644 29.7196 70.901 30.0446 69.056 29.8466C67.2111 29.6486 65.4591 28.9355 64.0003 27.7888C65.1773 26.8633 66.1288 25.6827 66.7831 24.3359C67.4374 22.9891 67.7773 21.5113 67.7773 20.014C67.7773 18.5167 67.4374 17.039 66.7831 15.6922C66.1288 14.3454 65.1773 13.1648 64.0003 12.2393C65.4591 11.0926 67.2111 10.3795 69.056 10.1815C70.901 9.98346 72.7644 10.3085 74.4333 11.1195C76.1022 11.9305 77.5093 13.1947 78.4937 14.7675C79.4781 16.3404 80.0001 18.1585 80 20.014Z" fill="#F79E1B"/>
<path d="M79.0566 26.1416V25.8233H79.1849V25.7584H78.858V25.8233H78.9865V26.1416H79.0566ZM79.6913 26.1416V25.7578H79.5911L79.4758 26.0218L79.3605 25.7578H79.2602V26.1416H79.331V25.8521L79.4391 26.1017H79.5125L79.6206 25.8515V26.1416H79.6913Z" fill="#F79E1B"/>
<path d="M108.327 12.2393H99.6738V27.7888H108.327V12.2393Z" fill="#7375CF"/>
<path d="M100.223 20.0141C100.222 18.5165 100.561 17.0383 101.216 15.6913C101.87 14.3443 102.822 13.1639 104 12.2393C102.541 11.0926 100.789 10.3795 98.9444 10.1815C97.0995 9.98346 95.236 10.3085 93.567 11.1195C91.8981 11.9305 90.491 13.1946 89.5065 14.7675C88.5221 16.3404 88 18.1585 88 20.0141C88 21.8696 88.5221 23.6878 89.5065 25.2606C90.491 26.8335 91.8981 28.0977 93.567 28.9087C95.236 29.7197 97.0995 30.0447 98.9444 29.8467C100.789 29.6487 102.541 28.9356 104 27.7889C102.822 26.8643 101.87 25.6838 101.216 24.3368C100.561 22.9898 100.222 21.5116 100.223 20.0141Z" fill="#EB001B"/>
<path d="M119.057 26.1419V25.8235H119.185V25.7587H118.858V25.8235H118.986V26.1419H119.057ZM119.691 26.1419V25.7581H119.591L119.476 26.0221L119.36 25.7581H119.26V26.1419H119.331V25.8524L119.439 26.102H119.512L119.621 25.8517V26.1419H119.691Z" fill="#00A2E5"/>
<path d="M120 20.0141C120 21.8696 119.478 23.6877 118.494 25.2606C117.509 26.8335 116.102 28.0977 114.433 28.9087C112.764 29.7196 110.901 30.0447 109.056 29.8467C107.211 29.6487 105.459 28.9356 104 27.7889C105.177 26.8634 106.129 25.6827 106.783 24.3359C107.437 22.9891 107.777 21.5114 107.777 20.0141C107.777 18.5168 107.437 17.039 106.783 15.6922C106.129 14.3455 105.177 13.1648 104 12.2393C105.459 11.0926 107.211 10.3795 109.056 10.1815C110.901 9.98346 112.764 10.3085 114.433 11.1195C116.102 11.9305 117.509 13.1947 118.494 14.7675C119.478 16.3404 120 18.1585 120 20.0141Z" fill="#00A2E5"/>
<path fill-rule="evenodd" clip-rule="evenodd" d="M168 20.7243H165.919C165.291 20.7243 164.835 20.8742 164.512 21.1073V20.7243H161.434C160.942 20.7243 160.365 20.8459 160.091 21.1073V20.7243H154.596V21.1073C154.158 20.7927 153.42 20.7243 153.08 20.7243H149.454V21.1073C149.108 20.7732 148.339 20.7243 147.87 20.7243H143.813L142.884 21.726L142.015 20.7243H135.954V27.2692H141.901L142.857 26.2516L143.759 27.2692L147.424 27.2724V25.7328H147.784C148.271 25.7403 148.844 25.7208 149.35 25.5027V27.269H152.374V25.5632H152.519C152.706 25.5632 152.724 25.5709 152.724 25.7563V27.2689H161.908C162.491 27.2689 163.101 27.1201 163.438 26.8501V27.2689H166.351C166.958 27.2689 167.55 27.1842 168 26.9672C168 -8.84206 168 35.7174 168 20.7243Z" fill="#006FCF"/>
<path fill-rule="evenodd" clip-rule="evenodd" d="M129.921 19.1966L130.354 18.155H131.324L131.756 19.1966H135.535V18.4003L135.873 19.2H137.835L138.172 18.3884V19.1966H147.565L147.561 17.4869H147.743C147.87 17.4912 147.907 17.503 147.907 17.7125V19.1966H152.765V18.7986C153.157 19.008 153.766 19.1966 154.568 19.1966H156.612L157.05 18.155H158.019L158.447 19.1966H162.386V18.2072L162.982 19.1966H166.138V12.6562H163.015V13.4287L162.577 12.6562H159.372V13.4287L158.971 12.6562H154.641C153.917 12.6562 153.28 12.7571 152.765 13.0381V12.6562H149.778V13.0381C149.45 12.7485 149.004 12.6562 148.508 12.6562H137.593L136.861 14.3455L136.109 12.6562H132.671V13.4287L132.293 12.6562H129.362L128 15.7659V19.1966H129.921Z" fill="#006FCF"/>
<path fill-rule="evenodd" clip-rule="evenodd" d="M147.834 24.7679C148.817 24.7679 149.792 24.4989 149.792 23.1959C149.792 21.8969 148.79 21.6506 147.897 21.6506H144.305L142.875 23.1881L141.492 21.6506H136.97V26.3412H141.423L142.862 24.7884L144.246 26.3412H146.431V24.7679H147.834ZM146.431 23.8153H147.884C148.316 23.8153 148.585 23.6016 148.585 23.1959C148.585 22.7858 148.303 22.6208 147.897 22.6208H146.431V23.8153ZM140.854 25.3637H138.09V24.4305H140.558V23.4735H138.09V22.6207H140.908L142.138 23.9876L140.854 25.3637ZM145.312 25.9147L143.585 24.004L145.312 22.1541V25.9147Z" fill="white"/>
<path fill-rule="evenodd" clip-rule="evenodd" d="M154.6 24.5552C154.504 24.4186 154.3 24.2535 154.049 24.1614C154.345 24.0443 154.846 23.6623 154.846 22.9136C154.846 22.3785 154.623 22.0857 154.268 21.872C153.899 21.6757 153.485 21.6506 152.916 21.6506H150.32V26.3412H151.45V24.628H152.651C153.061 24.628 153.312 24.6682 153.476 24.8362C153.664 25.0326 153.661 25.3908 153.658 25.6661C153.658 25.6967 153.658 25.7262 153.658 25.7544V26.3412H154.786V25.4114C154.782 24.9979 154.759 24.7842 154.6 24.5552ZM153.37 23.5777C153.22 23.6667 153.034 23.6743 152.815 23.6743H151.449V22.6208H152.834C153.034 22.6208 153.234 22.6251 153.37 22.7056C153.516 22.7815 153.603 22.9268 153.603 23.1275C153.603 23.3282 153.516 23.4899 153.37 23.5777Z" fill="white"/>
<path d="M163.515 23.8674C163.734 24.0932 163.852 24.3784 163.852 24.8611C163.852 25.8702 163.219 26.3412 162.085 26.3412H159.896V25.3354H162.077C162.29 25.3354 162.441 25.3073 162.536 25.2193C162.613 25.1467 162.669 25.0413 162.669 24.9133C162.669 24.7767 162.609 24.6682 162.531 24.6031C162.445 24.5316 162.327 24.499 162.131 24.499C162.062 24.4967 161.992 24.4948 161.922 24.4929C160.913 24.4655 159.763 24.4344 159.763 23.0473C159.763 22.3669 160.192 21.6508 161.37 21.6508H163.624V22.6491H161.562C161.357 22.6491 161.225 22.6567 161.111 22.7338C160.988 22.8098 160.943 22.9225 160.943 23.0713C160.943 23.2483 161.047 23.3686 161.189 23.4207C161.307 23.4618 161.435 23.4739 161.626 23.4739L162.231 23.4901C162.842 23.505 163.261 23.6102 163.515 23.8674Z" fill="white"/>
<path d="M168 22.6488H165.951C165.746 22.6488 165.61 22.6564 165.496 22.7335C165.377 22.8095 165.332 22.9222 165.332 23.071C165.332 23.248 165.432 23.3683 165.578 23.4204C165.696 23.4615 165.824 23.4736 166.011 23.4736L166.62 23.4898C167.235 23.505 167.645 23.6103 167.896 23.8673C167.934 23.8975 167.96 23.9309 167.986 23.9647L167.993 23.9738L167.997 23.9796L168 23.9835V25.7412C167.727 26.1394 167.195 26.3412 166.474 26.3412H164.303V25.3354H166.466C166.68 25.3354 166.83 25.3073 166.92 25.2193C166.999 25.1467 167.053 25.0414 167.053 24.9133C167.053 24.7767 166.999 24.6682 166.916 24.6032C166.835 24.5316 166.716 24.4991 166.52 24.4991C166.451 24.4967 166.381 24.4948 166.31 24.4929C165.298 24.4656 164.147 24.4345 164.147 23.0473C164.147 22.3669 164.581 21.6508 165.76 21.6508H168L168 22.6488Z" fill="white"/>
<path d="M155.47 21.6506H159.222V22.6207H156.589V23.4734H159.158V24.4304H156.589V25.3637L159.222 25.3679V26.3412H155.47V21.6506Z" fill="white"/>
<path fill-rule="evenodd" clip-rule="evenodd" d="M131.606 16.245L130.836 14.3756L130.071 16.245H131.606ZM148.558 15.5007C148.403 15.5942 148.221 15.5973 148.002 15.5973H146.636V14.5557H148.02C148.216 14.5557 148.421 14.5644 148.553 14.6403C148.699 14.7086 148.79 14.854 148.79 15.0548C148.79 15.2598 148.704 15.4247 148.558 15.5007ZM158.301 16.245L157.523 14.3756L156.749 16.245H158.301ZM140.139 18.2686H138.986L138.982 14.5958L137.352 18.2686H136.365L134.73 14.5926V18.2686H132.444L132.012 17.2226H129.671L129.234 18.2686H128.013L130.026 13.5791H131.697L133.609 18.019V13.5791H135.444L136.915 16.7603L138.267 13.5791H140.139V18.2686H140.139ZM144.733 18.2686H140.977V13.5791H144.733V14.5556H142.101V15.4009H144.669V16.3622H142.101V17.2987H144.733V18.2686ZM150.028 14.8421C150.028 15.5897 149.528 15.976 149.236 16.092C149.482 16.1854 149.692 16.3503 149.792 16.4869C149.951 16.7202 149.978 16.9285 149.978 17.3473V18.2686H148.844L148.84 17.6772C148.84 17.395 148.867 16.9892 148.662 16.7636C148.498 16.5987 148.248 16.5629 147.843 16.5629H146.636V18.2686H145.512V13.5791H148.098C148.672 13.5791 149.096 13.5942 149.459 13.8037C149.815 14.0132 150.028 14.319 150.028 14.8421ZM151.827 18.2686H150.68V13.5791H151.827V18.2686ZM165.136 18.2686H163.543L161.412 14.7488V18.2686H159.122L158.684 17.2226H156.349L155.924 18.2686H154.609C154.062 18.2686 153.371 18.148 152.979 17.7499C152.584 17.3517 152.378 16.8124 152.378 15.9596C152.378 15.2641 152.501 14.6283 152.984 14.1259C153.348 13.7517 153.917 13.5791 154.691 13.5791H155.78V14.5839H154.714C154.304 14.5839 154.072 14.6447 153.849 14.8617C153.658 15.0592 153.526 15.4324 153.526 15.924C153.526 16.4264 153.626 16.7886 153.835 17.0253C154.008 17.2108 154.323 17.2671 154.619 17.2671H155.124L156.708 13.5792H158.393L160.296 18.0148V13.5792H162.008L163.984 16.8452V13.5792H165.136V18.2686Z" fill="white"/>
<path d="M195.805 13.7438L193.133 26.2375H189.901L192.573 13.7438H195.805ZM209.404 21.8111L211.105 17.1195L212.084 21.8111H209.404ZM213.011 26.2375H216L213.389 13.7438H210.632C210.011 13.7438 209.487 14.104 209.255 14.6596L204.405 26.2375H207.8L208.474 24.3716H212.62L213.011 26.2375ZM204.574 22.1587C204.588 18.8614 200.015 18.6788 200.046 17.2055C200.056 16.7578 200.483 16.281 201.416 16.159C201.879 16.0995 203.156 16.0511 204.604 16.7182L205.17 14.0678C204.393 13.7865 203.392 13.5156 202.147 13.5156C198.952 13.5156 196.704 15.2129 196.686 17.6453C196.666 19.444 198.292 20.4469 199.514 21.046C200.775 21.6583 201.197 22.0508 201.191 22.5979C201.182 23.4362 200.186 23.8074 199.258 23.8214C197.632 23.8467 196.69 23.3819 195.939 23.0318L195.352 25.7707C196.108 26.1169 197.502 26.4182 198.945 26.4336C202.342 26.4336 204.563 24.7563 204.574 22.1587ZM191.187 13.7438L185.95 26.2375H182.534L179.956 16.2666C179.8 15.6535 179.664 15.4281 179.189 15.169C178.411 14.747 177.128 14.3522 176 14.1066L176.076 13.7438H181.576C182.277 13.7438 182.907 14.21 183.068 15.017L184.429 22.2472L187.791 13.7438H191.187Z" fill="#1434CB"/>
<path d="M259.305 11.875H228.695C226.102 11.875 224 13.9772 224 16.5704V23.3594C224 25.9526 226.102 28.0548 228.695 28.0548H259.305C261.898 28.0548 264 25.9526 264 23.3594V16.5704C264 13.9772 261.898 11.875 259.305 11.875Z" fill="#FFB3C7"/>
<path d="M256.031 18.9643C255.659 18.7106 255.224 18.5632 254.774 18.5381C254.324 18.5129 253.876 18.6109 253.478 18.8214C253.079 19.032 252.746 19.3473 252.514 19.7332C252.281 20.1192 252.158 20.5612 252.158 21.0118C252.158 21.4624 252.281 21.9044 252.514 22.2903C252.746 22.6763 253.079 22.9915 253.478 23.2021C253.876 23.4127 254.324 23.5107 254.774 23.4855C255.224 23.4603 255.659 23.313 256.031 23.0592V23.3592H257.437V18.664H256.031V18.9643ZM254.752 22.2198C254.516 22.2073 254.289 22.1258 254.099 21.9854C253.908 21.8449 253.763 21.6518 253.681 21.4299C253.6 21.2079 253.585 20.9669 253.639 20.7366C253.692 20.5062 253.813 20.2967 253.984 20.134C254.156 19.9713 254.371 19.8624 254.604 19.8209C254.837 19.7794 255.077 19.807 255.294 19.9004C255.512 19.9939 255.697 20.1489 255.827 20.3464C255.957 20.544 256.026 20.7753 256.026 21.0118C256.017 21.3409 255.878 21.6529 255.639 21.8794C255.4 22.1059 255.081 22.2283 254.752 22.2198Z" fill="black"/>
<path d="M236.752 16.5715H235.281V23.3593H236.752V16.5715Z" fill="black"/>
<path d="M249.662 18.5376C249.385 18.5213 249.109 18.5724 248.857 18.6866C248.605 18.8007 248.384 18.9745 248.214 19.193V18.6642H246.814V23.3593H248.23V20.8918C248.22 20.7501 248.239 20.6077 248.288 20.4743C248.337 20.3408 248.415 20.2195 248.515 20.1186C248.615 20.0177 248.736 19.9395 248.869 19.8894C249.002 19.8393 249.144 19.8184 249.286 19.8282C249.904 19.8282 250.259 20.1973 250.259 20.8821V23.3593H251.663V20.3734C251.663 19.2807 250.794 18.5376 249.662 18.5376Z" fill="black"/>
<path d="M241.2 18.9643C240.828 18.7106 240.393 18.5632 239.943 18.5381C239.493 18.5129 239.045 18.6109 238.647 18.8214C238.249 19.032 237.915 19.3473 237.683 19.7332C237.45 20.1192 237.327 20.5612 237.327 21.0118C237.327 21.4624 237.45 21.9044 237.683 22.2903C237.915 22.6763 238.249 22.9915 238.647 23.2021C239.045 23.4127 239.493 23.5107 239.943 23.4855C240.393 23.4603 240.828 23.313 241.2 23.0592V23.3592H242.606V18.664H241.2V18.9643ZM239.921 22.2198C239.685 22.2073 239.458 22.1258 239.268 21.9854C239.077 21.845 238.932 21.6519 238.85 21.43C238.769 21.208 238.754 20.967 238.808 20.7366C238.861 20.5063 238.981 20.2968 239.153 20.134C239.325 19.9713 239.54 19.8624 239.773 19.8209C240.006 19.7794 240.246 19.807 240.463 19.9004C240.681 19.9938 240.866 20.1489 240.996 20.3464C241.126 20.544 241.195 20.7753 241.195 21.0118C241.186 21.3409 241.047 21.6529 240.808 21.8794C240.569 22.1059 240.25 22.2283 239.921 22.2198H239.921Z" fill="black"/>
<path d="M244.78 19.2757V18.6642H243.341V23.3595H244.783V21.1675C244.783 20.4278 245.585 20.0303 246.141 20.0303C246.147 20.0303 246.152 20.0309 246.158 20.0309V18.6644C245.897 18.6575 245.639 18.7087 245.4 18.8144C245.162 18.9202 244.95 19.0778 244.78 19.2757Z" fill="black"/>
<path d="M258.929 21.6941C258.755 21.6941 258.584 21.7459 258.439 21.8428C258.294 21.9398 258.181 22.0776 258.114 22.2388C258.047 22.4 258.03 22.5775 258.064 22.7486C258.098 22.9198 258.182 23.077 258.305 23.2004C258.429 23.3238 258.586 23.4078 258.757 23.4419C258.928 23.4759 259.106 23.4584 259.267 23.3916C259.428 23.3249 259.566 23.2118 259.663 23.0667C259.76 22.9216 259.812 22.751 259.812 22.5765C259.812 22.4606 259.789 22.3458 259.744 22.2388C259.7 22.1317 259.635 22.0344 259.553 21.9525C259.471 21.8706 259.374 21.8056 259.267 21.7612C259.16 21.7169 259.045 21.6941 258.929 21.6941Z" fill="black"/>
<path d="M234.267 16.5703H232.742C232.745 17.1818 232.603 17.7852 232.329 18.3319C232.055 18.8786 231.657 19.3532 231.166 19.7174L230.562 20.1698L232.902 23.3615H234.826L232.673 20.4247C233.181 19.9199 233.583 19.3192 233.857 18.6575C234.131 17.9958 234.27 17.2864 234.267 16.5703Z" fill="black"/>
<path d="M230.375 16.5703H228.848V23.3612H230.375V16.5703Z" fill="black"/>
<defs>
<clipPath id="clip0_1719_1701">
<rect width="40" height="40" fill="white"/>
</clipPath>
</defs>
</svg>
