<svg width="32" height="32" viewBox="0 0 32 32" fill="none" xmlns="http://www.w3.org/2000/svg">
<path d="M20.3267 8.23877H11.6738V23.7883H20.3267V8.23877Z" fill="#FF5F00"/>
<path d="M12.2232 16.014C12.2218 14.5165 12.5611 13.0383 13.2155 11.6913C13.8699 10.3443 14.8222 9.16385 16.0002 8.23928C14.5414 7.0926 12.7893 6.3795 10.9444 6.18148C9.09943 5.98346 7.23598 6.30851 5.56703 7.11948C3.89808 7.93045 2.49096 9.19462 1.50651 10.7675C0.522061 12.3404 0 14.1585 0 16.014C0 17.8696 0.522061 19.6877 1.50651 21.2606C2.49096 22.8335 3.89808 24.0976 5.56703 24.9086C7.23598 25.7196 9.09943 26.0446 10.9444 25.8466C12.7893 25.6486 14.5414 24.9355 16.0002 23.7888C14.8222 22.8642 13.8699 21.6838 13.2155 20.3368C12.5612 18.9898 12.2218 17.5116 12.2232 16.014Z" fill="#EB001B"/>
<path d="M32.0002 16.014C32.0003 17.8696 31.4783 19.6877 30.4939 21.2606C29.5095 22.8334 28.1024 24.0976 26.4335 24.9086C24.7646 25.7196 22.9011 26.0446 21.0562 25.8466C19.2113 25.6486 17.4593 24.9355 16.0005 23.7888C17.1775 22.8633 18.129 21.6827 18.7833 20.3359C19.4375 18.9891 19.7775 17.5113 19.7775 16.014C19.7775 14.5167 19.4375 13.039 18.7833 11.6922C18.129 10.3454 17.1775 9.16478 16.0005 8.23928C17.4593 7.0926 19.2113 6.37949 21.0562 6.18148C22.9011 5.98346 24.7646 6.30852 26.4335 7.1195C28.1024 7.93048 29.5095 9.19465 30.4939 10.7675C31.4783 12.3404 32.0003 14.1585 32.0002 16.014Z" fill="#F79E1B"/>
<path d="M31.0565 22.1416V21.8233H31.1848V21.7584H30.8579V21.8233H30.9863V22.1416H31.0565ZM31.6911 22.1416V21.7578H31.5909L31.4757 22.0218L31.3604 21.7578H31.2601V22.1416H31.3309V21.8521L31.439 22.1017H31.5123L31.6204 21.8515V22.1416H31.6911Z" fill="#F79E1B"/>
</svg>
