<svg width="40" height="40" viewBox="0 0 40 40" fill="none" xmlns="http://www.w3.org/2000/svg">
<path d="M19.8054 13.7438L17.1331 26.2375H13.9007L16.5733 13.7438H19.8054ZM33.4037 21.8111L35.1049 17.1195L36.0839 21.8111H33.4037ZM37.0112 26.2375H40L37.3889 13.7438H34.632C34.0107 13.7438 33.4869 14.104 33.2551 14.6596L28.4052 26.2375H31.7998L32.4736 24.3716H36.6198L37.0112 26.2375ZM28.5736 22.1587C28.5876 18.8614 24.0154 18.6788 24.046 17.2055C24.0559 16.7578 24.483 16.281 25.4165 16.159C25.8793 16.0995 27.1565 16.0511 28.6042 16.7182L29.1704 14.0678C28.3929 13.7865 27.3922 13.5156 26.1471 13.5156C22.9518 13.5156 20.7041 15.2129 20.6861 17.6453C20.6656 19.444 22.2917 20.4469 23.5144 21.046C24.775 21.6583 25.1973 22.0508 25.1911 22.5979C25.1824 23.4362 24.186 23.8074 23.2581 23.8214C21.6322 23.8467 20.6897 23.3819 19.9386 23.0318L19.3519 25.7707C20.1083 26.1169 21.5021 26.4182 22.9453 26.4336C26.3424 26.4336 28.5634 24.7563 28.5736 22.1587ZM15.1868 13.7438L9.94977 26.2375H6.53361L3.95625 16.2666C3.80001 15.6535 3.66372 15.4281 3.18855 15.169C2.41129 14.747 1.12823 14.3522 0 14.1066L0.0764338 13.7438H5.57623C6.27678 13.7438 6.90707 14.21 7.06752 15.017L8.42898 22.2472L11.7912 13.7438H15.1868Z" fill="#1434CB"/>
</svg>
