<svg width="32" height="32" viewBox="0 0 32 32" fill="none" xmlns="http://www.w3.org/2000/svg">
<path d="M20.3268 8.23926H11.6738V23.7888H20.3268V8.23926Z" fill="#7375CF"/>
<path d="M12.2232 16.0141C12.2218 14.5165 12.5612 13.0383 13.2156 11.6913C13.87 10.3443 14.8222 9.16386 16.0003 8.23929C14.5414 7.0926 12.7894 6.3795 10.9444 6.18148C9.09946 5.98346 7.236 6.30851 5.56704 7.11949C3.89808 7.93046 2.49096 9.19463 1.50651 10.7675C0.522063 12.3404 0 14.1585 0 16.0141C0 17.8696 0.522063 19.6878 1.50651 21.2606C2.49096 22.8335 3.89808 24.0977 5.56704 24.9087C7.236 25.7197 9.09946 26.0447 10.9444 25.8467C12.7894 25.6487 14.5414 24.9356 16.0003 23.7889C14.8222 22.8643 13.87 21.6838 13.2156 20.3368C12.5612 18.9898 12.2218 17.5116 12.2232 16.0141Z" fill="#EB001B"/>
<path d="M31.0565 22.1421V21.8238H31.1848V21.7589H30.8579V21.8238H30.9863V22.1421H31.0565ZM31.6911 22.1421V21.7583H31.5909L31.4757 22.0223L31.3604 21.7583H31.2601V22.1421H31.3309V21.8526L31.439 22.1022H31.5123L31.6204 21.852V22.1421H31.6911Z" fill="#00A2E5"/>
<path d="M32.0002 16.0141C32.0003 17.8696 31.4783 19.6877 30.4939 21.2606C29.5095 22.8335 28.1024 24.0977 26.4335 24.9087C24.7646 25.7196 22.9012 26.0447 21.0562 25.8467C19.2113 25.6487 17.4593 24.9356 16.0005 23.7889C17.1775 22.8634 18.129 21.6827 18.7833 20.3359C19.4376 18.9891 19.7775 17.5114 19.7775 16.0141C19.7775 14.5168 19.4376 13.039 18.7833 11.6922C18.129 10.3455 17.1775 9.16479 16.0005 8.23929C17.4593 7.0926 19.2113 6.3795 21.0562 6.18148C22.9012 5.98346 24.7646 6.30852 26.4335 7.1195C28.1024 7.93048 29.5095 9.19466 30.4939 10.7675C31.4783 12.3404 32.0003 14.1585 32.0002 16.0141Z" fill="#00A2E5"/>
</svg>
