<svg width="40" height="40" viewBox="0 0 40 40" fill="none" xmlns="http://www.w3.org/2000/svg">
<g clip-path="url(#clip0_5881_556)">
<path d="M30.7451 17.2627H28.5312C28.3801 17.2627 28.2513 17.3727 28.2276 17.5223L27.3324 23.1983C27.3146 23.3103 27.4013 23.4113 27.5143 23.4113H28.6503C28.7559 23.4113 28.8462 23.3342 28.8627 23.2294L29.1167 21.6205C29.14 21.4706 29.2692 21.3606 29.4203 21.3606H30.1207C31.5792 21.3606 32.4203 20.655 32.6404 19.2568C32.7398 18.6451 32.6443 18.1644 32.3579 17.8278C32.0436 17.4582 31.4859 17.2627 30.7451 17.2627ZM31.0004 19.3357C30.8797 20.13 30.2729 20.13 29.6857 20.13H29.352L29.5867 18.6467C29.6006 18.557 29.6776 18.491 29.7686 18.491H29.9217C30.3211 18.491 30.6985 18.491 30.8933 18.7188C31.0095 18.8548 31.0448 19.0567 31.0004 19.3357Z" fill="#179BD7"/>
<path d="M37.3612 19.3101H36.3019C36.2109 19.3101 36.1336 19.3762 36.12 19.4658L36.0731 19.7623L35.9986 19.6548C35.7691 19.3218 35.2578 19.2104 34.747 19.2104C33.5757 19.2104 32.5756 20.0976 32.3807 21.3421C32.2798 21.9629 32.4231 22.5565 32.7753 22.9704C33.0989 23.351 33.5605 23.5096 34.1104 23.5096C35.0542 23.5096 35.5775 22.9028 35.5775 22.9028L35.5303 23.1973C35.5125 23.3099 35.5992 23.4109 35.7128 23.4109H36.6673C36.8185 23.4109 36.9473 23.3009 36.9709 23.151L37.5441 19.5231C37.5616 19.4114 37.4748 19.3101 37.3612 19.3101ZM35.8837 21.3731C35.7821 21.9787 35.3008 22.3852 34.6878 22.3852C34.3806 22.3852 34.134 22.2865 33.9761 22.0994C33.8194 21.9137 33.7605 21.6492 33.8097 21.3547C33.9058 20.7543 34.3939 20.3345 34.9975 20.3345C35.2985 20.3345 35.5432 20.4345 35.7044 20.6232C35.8666 20.8139 35.9307 21.0799 35.8837 21.3731Z" fill="#179BD7"/>
<path d="M38.611 17.4182L37.7025 23.1981C37.6847 23.3101 37.7715 23.4111 37.8844 23.4111H38.7978C38.9496 23.4111 39.0784 23.3011 39.1017 23.1512L39.9976 17.4755C40.0154 17.3635 39.9287 17.2622 39.8157 17.2622H38.7929C38.7026 17.2625 38.625 17.3286 38.611 17.4182Z" fill="#179BD7"/>
<path d="M14.9565 17.2627H12.743C12.5915 17.2627 12.4627 17.3727 12.4391 17.5223L11.5438 23.1983C11.526 23.3103 11.6128 23.4113 11.7264 23.4113H12.7831C12.9346 23.4113 13.0634 23.3012 13.087 23.1514L13.3285 21.6205C13.3518 21.4706 13.4809 21.3606 13.6321 21.3606H14.3328C15.7909 21.3606 16.6324 20.655 16.8522 19.2568C16.9512 18.6451 16.8564 18.1644 16.57 17.8278C16.2554 17.4582 15.6974 17.2627 14.9565 17.2627ZM15.2119 19.3357C15.0908 20.13 14.484 20.13 13.8972 20.13H13.5631L13.7975 18.6467C13.8114 18.557 13.8891 18.491 13.9797 18.491H14.1328C14.5325 18.491 14.9096 18.491 15.1044 18.7188C15.2206 18.8548 15.2562 19.0567 15.2119 19.3357Z" fill="#253B80"/>
<path d="M21.5731 19.3101H20.5131C20.4228 19.3101 20.3448 19.3762 20.3309 19.4658L20.2839 19.7623L20.2098 19.6548C19.9803 19.3218 19.4686 19.2104 18.9579 19.2104C17.7866 19.2104 16.7861 20.0976 16.5913 21.3421C16.49 21.9629 16.634 22.5565 16.9861 22.9704C17.3092 23.351 17.7713 23.5096 18.3212 23.5096C19.265 23.5096 19.7884 22.9028 19.7884 22.9028L19.7411 23.1973C19.7233 23.3099 19.8101 23.4109 19.923 23.4109H20.8778C21.0296 23.4109 21.1578 23.3009 21.1818 23.151L21.7546 19.5231C21.7728 19.4114 21.6863 19.3101 21.5731 19.3101ZM20.0956 21.3731C19.9933 21.9787 19.5126 22.3852 18.8996 22.3852C18.5918 22.3852 18.3458 22.2865 18.1879 22.0994C18.0312 21.9137 17.9717 21.6492 18.0215 21.3547C18.117 20.7543 18.6057 20.3345 19.2094 20.3345C19.5104 20.3345 19.7551 20.4345 19.9162 20.6232C20.0778 20.8139 20.1418 21.0799 20.0956 21.3731Z" fill="#253B80"/>
<path d="M27.2184 19.3101H26.1532C26.0516 19.3101 25.9561 19.3605 25.8985 19.445L24.4294 21.609L23.8067 19.5295C23.7675 19.3994 23.6475 19.3101 23.5115 19.3101H22.4648C22.3376 19.3101 22.2492 19.4343 22.2897 19.5541L23.463 22.9972L22.3599 24.5543C22.2732 24.677 22.3606 24.8456 22.5104 24.8456H23.5743C23.6753 24.8456 23.7698 24.7964 23.8271 24.7136L27.3699 19.5997C27.4547 19.4774 27.3676 19.3101 27.2184 19.3101Z" fill="#253B80"/>
<path d="M2.35158 24.5142L2.52085 23.439L2.14379 23.4303H0.343262L1.59453 15.4964C1.59842 15.4725 1.61104 15.4501 1.62949 15.4343C1.64794 15.4184 1.67157 15.4097 1.69616 15.4097H4.7321C5.73998 15.4097 6.43553 15.6194 6.79868 16.0334C6.96892 16.2276 7.07735 16.4305 7.12978 16.6538C7.1848 16.8882 7.18577 17.1681 7.13205 17.5096L7.12816 17.5345V17.7533L7.29841 17.8497C7.44179 17.9258 7.55572 18.0129 7.64311 18.1126C7.78875 18.2786 7.88294 18.4896 7.92275 18.7398C7.96385 18.9971 7.95026 19.3033 7.88294 19.6499C7.80526 20.0487 7.67968 20.396 7.51008 20.6802C7.35408 20.942 7.15535 21.1592 6.9194 21.3275C6.69413 21.4874 6.42646 21.6087 6.12384 21.6864C5.83061 21.7628 5.49626 21.8013 5.12956 21.8013H4.89328C4.72433 21.8013 4.56024 21.8622 4.43142 21.9712C4.30228 22.0826 4.21683 22.2347 4.19062 22.4011L4.17282 22.4978L3.87375 24.3929L3.86016 24.4625C3.8566 24.4845 3.85045 24.4955 3.84139 24.5029C3.8333 24.5097 3.82164 24.5142 3.81032 24.5142H2.35158Z" fill="#253B80"/>
<path d="M7.45974 17.5596C7.45068 17.6175 7.44032 17.6767 7.42867 17.7376C7.0283 19.7932 5.65857 20.5033 3.90918 20.5033H3.01847C2.80453 20.5033 2.62425 20.6586 2.59091 20.8696L2.13488 23.7619L2.00573 24.5817C1.98405 24.7202 2.09086 24.8452 2.23068 24.8452H3.81047C3.99754 24.8452 4.15646 24.7092 4.18591 24.5247L4.20145 24.4445L4.49889 22.5569L4.51799 22.4533C4.54712 22.2682 4.70636 22.1322 4.89344 22.1322H5.12971C6.6603 22.1322 7.85849 21.5108 8.20869 19.7126C8.35499 18.9613 8.27925 18.3341 7.89215 17.8929C7.77499 17.7599 7.62966 17.6495 7.45974 17.5596Z" fill="#179BD7"/>
<path d="M7.04083 17.3927C6.97966 17.3749 6.91655 17.3587 6.85181 17.3442C6.78676 17.3299 6.72008 17.3173 6.65147 17.3063C6.41131 17.2675 6.14818 17.249 5.86627 17.249H3.48671C3.42813 17.249 3.37246 17.2623 3.32262 17.2862C3.2129 17.339 3.13133 17.4429 3.11159 17.5701L2.60539 20.7763L2.59082 20.8698C2.62416 20.6588 2.80444 20.5034 3.01838 20.5034H3.90909C5.65848 20.5034 7.02821 19.793 7.42858 17.7378C7.44055 17.6769 7.45059 17.6177 7.45965 17.5597C7.35834 17.506 7.24862 17.4601 7.13049 17.4209C7.10136 17.4112 7.07126 17.4018 7.04083 17.3927Z" fill="#222D65"/>
<path d="M3.11167 17.57C3.13141 17.4428 3.21298 17.3389 3.3227 17.2865C3.37286 17.2625 3.42821 17.2492 3.48679 17.2492H5.86635C6.14826 17.2492 6.41139 17.2677 6.65155 17.3065C6.72016 17.3175 6.78684 17.3302 6.85189 17.3444C6.91663 17.359 6.97974 17.3751 7.04091 17.3929C7.07134 17.402 7.10144 17.4114 7.13089 17.4208C7.24903 17.4599 7.35875 17.5062 7.46005 17.5596C7.57916 16.8 7.45908 16.2828 7.04836 15.8145C6.59555 15.2989 5.77831 15.0781 4.73256 15.0781H1.69663C1.48301 15.0781 1.30079 15.2335 1.26778 15.4448L0.00323299 23.4603C-0.0216889 23.6189 0.100655 23.7619 0.260543 23.7619H2.13486L2.60547 20.7762L3.11167 17.57Z" fill="#253B80"/>
</g>
<defs>
<clipPath id="clip0_5881_556">
<rect width="40" height="40" fill="white"/>
</clipPath>
</defs>
</svg>
