<svg width="40" height="40" viewBox="0 0 40 40" fill="none" xmlns="http://www.w3.org/2000/svg">
<path d="M35.3046 11.875H4.69536C2.10218 11.875 0 13.9772 0 16.5704V23.3594C0 25.9526 2.10218 28.0548 4.69536 28.0548H35.3046C37.8978 28.0548 40 25.9526 40 23.3594V16.5704C40 13.9772 37.8978 11.875 35.3046 11.875Z" fill="#FFB3C7"/>
<path d="M32.0309 18.9643C31.6586 18.7106 31.2241 18.5632 30.7742 18.5381C30.3244 18.5129 29.8761 18.6109 29.4778 18.8214C29.0795 19.032 28.7461 19.3473 28.5136 19.7332C28.2811 20.1192 28.1582 20.5612 28.1582 21.0118C28.1582 21.4624 28.2811 21.9044 28.5136 22.2903C28.7461 22.6763 29.0795 22.9915 29.4778 23.2021C29.8761 23.4127 30.3244 23.5107 30.7742 23.4855C31.2241 23.4603 31.6586 23.313 32.0309 23.0592V23.3592H33.4367V18.664H32.0309V18.9643ZM30.7524 22.2198C30.5162 22.2073 30.2889 22.1258 30.0985 21.9854C29.9082 21.8449 29.7632 21.6518 29.6814 21.4299C29.5997 21.2079 29.5848 20.9669 29.6386 20.7366C29.6925 20.5062 29.8126 20.2967 29.9842 20.134C30.1559 19.9713 30.3715 19.8624 30.6043 19.8209C30.8372 19.7794 31.0771 19.807 31.2944 19.9004C31.5117 19.9939 31.6968 20.1489 31.8269 20.3464C31.957 20.544 32.0263 20.7753 32.0263 21.0118C32.0173 21.3409 31.8781 21.6529 31.6393 21.8794C31.4004 22.1059 31.0814 22.2283 30.7524 22.2198Z" fill="black"/>
<path d="M12.7524 16.5718H11.2812V23.3595H12.7524V16.5718Z" fill="black"/>
<path d="M25.662 18.5376C25.3856 18.5213 25.1093 18.5724 24.8571 18.6866C24.6048 18.8007 24.3841 18.9745 24.214 19.193V18.6642H22.814V23.3593H24.2308V20.8918C24.2199 20.7501 24.2397 20.6077 24.2887 20.4743C24.3378 20.3408 24.415 20.2195 24.5152 20.1186C24.6153 20.0177 24.736 19.9395 24.869 19.8894C25.002 19.8393 25.1443 19.8184 25.2861 19.8282C25.904 19.8282 26.2591 20.1973 26.2591 20.8821V23.3593H27.6634V20.3734C27.6634 19.2807 26.7946 18.5376 25.662 18.5376Z" fill="black"/>
<path d="M17.2004 18.9643C16.828 18.7106 16.3935 18.5632 15.9437 18.5381C15.4938 18.5129 15.0456 18.6109 14.6472 18.8214C14.2489 19.032 13.9155 19.3473 13.683 19.7332C13.4505 20.1192 13.3276 20.5612 13.3276 21.0118C13.3276 21.4624 13.4505 21.9044 13.683 22.2903C13.9155 22.6763 14.2489 22.9915 14.6472 23.2021C15.0456 23.4127 15.4938 23.5107 15.9437 23.4855C16.3935 23.4603 16.828 23.313 17.2004 23.0592V23.3592H18.6062V18.664H17.2004V18.9643ZM15.9218 22.2198C15.6856 22.2073 15.4582 22.1258 15.2679 21.9854C15.0775 21.845 14.9325 21.6519 14.8507 21.43C14.7689 21.208 14.754 20.967 14.8078 20.7366C14.8617 20.5063 14.9818 20.2968 15.1534 20.134C15.3251 19.9713 15.5406 19.8624 15.7735 19.8209C16.0063 19.7794 16.2463 19.807 16.4636 19.9004C16.6809 19.9938 16.866 20.1489 16.9961 20.3464C17.1262 20.544 17.1956 20.7753 17.1956 21.0118C17.1866 21.3409 17.0474 21.6529 16.8086 21.8794C16.5697 22.1059 16.2508 22.2283 15.9217 22.2198H15.9218Z" fill="black"/>
<path d="M20.7806 19.2755V18.6639H19.3413V23.3592H20.7837V21.1672C20.7837 20.4276 21.5854 20.03 22.1417 20.03C22.1473 20.03 22.1527 20.0306 22.1583 20.0306V18.6642C21.8977 18.6572 21.6388 18.7085 21.4004 18.8142C21.1621 18.9199 20.9503 19.0775 20.7806 19.2755Z" fill="black"/>
<path d="M34.9292 21.6938C34.7547 21.6939 34.5841 21.7456 34.439 21.8426C34.2939 21.9395 34.1808 22.0773 34.114 22.2386C34.0473 22.3998 34.0298 22.5772 34.0638 22.7484C34.0979 22.9195 34.1819 23.0767 34.3053 23.2001C34.4287 23.3235 34.5859 23.4076 34.7571 23.4416C34.9283 23.4757 35.1057 23.4582 35.2669 23.3914C35.4281 23.3246 35.5659 23.2115 35.6629 23.0664C35.7598 22.9213 35.8116 22.7507 35.8116 22.5762C35.8116 22.4603 35.7888 22.3456 35.7444 22.2385C35.7001 22.1315 35.6351 22.0342 35.5532 21.9522C35.4712 21.8703 35.3739 21.8053 35.2669 21.761C35.1598 21.7166 35.0451 21.6938 34.9292 21.6938Z" fill="black"/>
<path d="M10.2672 16.5703H8.74249C8.74485 17.1818 8.60339 17.7852 8.32954 18.3319C8.05569 18.8786 7.65712 19.3532 7.16601 19.7174L6.56201 20.1698L8.90253 23.3615H10.8268L8.67329 20.4247C9.18116 19.9199 9.58361 19.3192 9.85724 18.6575C10.1309 17.9958 10.2702 17.2864 10.2672 16.5703Z" fill="black"/>
<path d="M6.37554 16.5703H4.84814V23.3612H6.37554V16.5703Z" fill="black"/>
</svg>
