<svg width="40" height="40" viewBox="0 0 40 40" fill="none" xmlns="http://www.w3.org/2000/svg">
<path fill-rule="evenodd" clip-rule="evenodd" d="M40 20.7245H37.9193C37.2914 20.7245 36.8353 20.8744 36.5123 21.1075V20.7245H33.4346C32.9425 20.7245 32.3648 20.8462 32.0916 21.1075V20.7245H26.5957V21.1075C26.1584 20.793 25.4203 20.7245 25.0797 20.7245H21.4546V21.1075C21.1086 20.7735 20.3391 20.7245 19.8701 20.7245H15.813L14.8846 21.7262L14.015 20.7245H7.95459V27.2694H13.901L14.8576 26.2519L15.7588 27.2694L19.4242 27.2727V25.7331H19.7845C20.2708 25.7406 20.8444 25.721 21.3505 25.5029V27.2693H24.3738V25.5635H24.5196C24.7057 25.5635 24.724 25.5711 24.724 25.7565V27.2692H33.9082C34.4913 27.2692 35.1008 27.1204 35.4383 26.8503V27.2692H38.3515C38.9577 27.2692 39.5497 27.1844 40.0002 26.9675C40.0002 -8.84181 40 35.7177 40 20.7245Z" fill="#006FCF"/>
<path fill-rule="evenodd" clip-rule="evenodd" d="M1.92108 19.1966L2.35421 18.155H3.3239L3.7559 19.1966H7.53549V18.4003L7.87285 19.2H9.83493L10.1723 18.3884V19.1966H19.5653L19.5609 17.4869H19.7426C19.8699 17.4912 19.9071 17.503 19.9071 17.7125V19.1966H24.7652V18.7986C25.157 19.008 25.7665 19.1966 26.5685 19.1966H28.6123L29.0497 18.155H30.0194L30.4471 19.1966H34.3856V18.2072L34.982 19.1966H38.1381V12.6562H35.0146V13.4287L34.5773 12.6562H31.3722V13.4287L30.9706 12.6562H26.6414C25.9167 12.6562 25.2797 12.7571 24.7652 13.0381V12.6562H21.7776V13.0381C21.4502 12.7485 21.004 12.6562 20.5079 12.6562H9.59333L8.86099 14.3455L8.10893 12.6562H4.67111V13.4287L4.29345 12.6562H1.36154L0 15.7659V19.1966H1.92108Z" fill="#006FCF"/>
<path fill-rule="evenodd" clip-rule="evenodd" d="M19.8342 24.7677C20.817 24.7677 21.792 24.4987 21.792 23.1957C21.792 21.8966 20.7896 21.6504 19.8974 21.6504H16.3049L14.8748 23.1879L13.4916 21.6504H8.96973V26.341H13.4231L14.8618 24.7882L16.2462 26.341H18.4314V24.7677H19.8342ZM18.4314 23.8151H19.8843C20.3163 23.8151 20.585 23.6014 20.585 23.1957C20.585 22.7855 20.3032 22.6206 19.8974 22.6206H18.4314V23.8151ZM12.8539 25.3635H10.0897V24.4302H12.5579V23.4732H10.0897V22.6204H12.9084L14.1381 23.9874L12.8539 25.3635ZM17.3116 25.9144L15.5855 24.0038L17.3116 22.1538V25.9144Z" fill="white"/>
<path fill-rule="evenodd" clip-rule="evenodd" d="M26.6002 24.555C26.5043 24.4183 26.2997 24.2533 26.0495 24.1612C26.3454 24.0441 26.8462 23.662 26.8463 22.9133C26.8463 22.3783 26.6232 22.0855 26.2684 21.8718C25.8994 21.6754 25.4848 21.6504 24.9156 21.6504H22.3199V26.341H23.4497V24.6278H24.6512C25.0613 24.6278 25.3117 24.668 25.476 24.836C25.6641 25.0323 25.6608 25.3905 25.6583 25.6659C25.658 25.6964 25.6577 25.726 25.6577 25.7541V26.341H26.7865V25.4111C26.7819 24.9977 26.7589 24.784 26.6002 24.555ZM25.3705 23.5775C25.2201 23.6664 25.0341 23.6741 24.8153 23.6741H23.4495V22.6206H24.8339C25.0341 22.6206 25.2344 22.6248 25.3705 22.7053C25.5162 22.7813 25.6033 22.9265 25.6033 23.1272C25.6033 23.328 25.5162 23.4896 25.3705 23.5775Z" fill="white"/>
<path d="M35.5154 23.8671C35.7343 24.093 35.8516 24.3781 35.8516 24.8609C35.8516 25.87 35.2193 26.341 34.0855 26.341H31.8957V25.3352H34.0767C34.2899 25.3352 34.4411 25.307 34.5359 25.219C34.6132 25.1465 34.6687 25.0411 34.6687 24.9131C34.6687 24.7765 34.6087 24.668 34.5315 24.6029C34.4455 24.5313 34.3269 24.4988 34.1311 24.4988C34.0623 24.4965 33.9923 24.4946 33.9216 24.4926C32.9129 24.4653 31.763 24.4341 31.763 23.047C31.763 22.3667 32.1918 21.6505 33.3704 21.6505H35.6243V22.6488H33.562C33.3575 22.6488 33.2246 22.6565 33.1115 22.7336C32.9884 22.8095 32.9427 22.9223 32.9427 23.0711C32.9427 23.248 33.0472 23.3684 33.1887 23.4204C33.3073 23.4616 33.4347 23.4736 33.6262 23.4736L34.2315 23.4899C34.8418 23.5047 35.2607 23.61 35.5154 23.8671Z" fill="white"/>
<path d="M40.0001 22.6486H37.951C37.7464 22.6486 37.6105 22.6562 37.496 22.7333C37.3774 22.8092 37.3318 22.922 37.3318 23.0708C37.3318 23.2477 37.4319 23.3681 37.5776 23.4201C37.6962 23.4613 37.8236 23.4733 38.0109 23.4733L38.6202 23.4896C39.2351 23.5047 39.6455 23.6101 39.8958 23.8671C39.9342 23.8973 39.9597 23.9306 39.9856 23.9644L39.9926 23.9736L39.9971 23.9794L40.0001 23.9832V25.741C39.727 26.1391 39.1948 26.341 38.4744 26.341H36.3032V25.3352H38.4656C38.6801 25.3352 38.8302 25.307 38.9206 25.219C38.9989 25.1465 39.0535 25.0411 39.0535 24.9131C39.0535 24.7765 38.9989 24.668 38.9162 24.6029C38.8346 24.5313 38.7159 24.4988 38.5201 24.4988C38.451 24.4965 38.3808 24.4946 38.31 24.4927C37.2977 24.4653 36.1474 24.4342 36.1474 23.047C36.1474 22.3667 36.5807 21.6505 37.7605 21.6505H39.9999L40.0001 22.6486Z" fill="white"/>
<path d="M27.4697 21.6504H31.2221V22.6204H28.5894V23.4732H31.1578V24.4302H28.5894V25.3634L31.2221 25.3677V26.341H27.4697V21.6504Z" fill="white"/>
<path fill-rule="evenodd" clip-rule="evenodd" d="M3.60565 16.245L2.83614 14.3756L2.07103 16.245H3.60565ZM20.5578 15.5007C20.4033 15.5942 20.2206 15.5973 20.0017 15.5973H18.6359V14.5557H20.0203C20.2162 14.5557 20.4206 14.5644 20.5534 14.6403C20.6993 14.7086 20.7895 14.854 20.7895 15.0548C20.7895 15.2598 20.7037 15.4247 20.5578 15.5007ZM30.3013 16.245L29.5232 14.3756L28.7495 16.245H30.3013ZM12.1389 18.2686H10.9863L10.9821 14.5958L9.35185 18.2686H8.36471L6.73021 14.5926V18.2686H4.44354L4.01154 17.2226H1.67066L1.23427 18.2686H0.0131836L2.02648 13.5791H3.69687L5.60901 18.019V13.5791H7.44397L8.91531 16.7603L10.2669 13.5791H12.1388V18.2686H12.1389ZM16.7326 18.2686H12.9768V13.5791H16.7326V14.5556H14.1011V15.4009H16.6694V16.3622H14.1011V17.2987H16.7326V18.2686ZM22.028 14.8421C22.028 15.5897 21.5275 15.976 21.2358 16.092C21.4818 16.1854 21.6919 16.3503 21.792 16.4869C21.9507 16.7202 21.9781 16.9285 21.9781 17.3473V18.2686H20.8441L20.8399 17.6772C20.8399 17.395 20.867 16.9892 20.6624 16.7636C20.4981 16.5987 20.2477 16.5629 19.8429 16.5629H18.636V18.2686H17.5119V13.5791H20.0977C20.6723 13.5791 21.0957 13.5942 21.4591 13.8037C21.8148 14.0132 22.028 14.319 22.028 14.8421ZM23.8273 18.2686H22.6801V13.5791H23.8273V18.2686ZM37.1359 18.2686H35.5427L33.4116 14.7488V18.2686H31.122L30.6845 17.2226H28.349L27.9245 18.2686H26.6089C26.0624 18.2686 25.3705 18.148 24.9787 17.7499C24.5836 17.3517 24.378 16.8124 24.378 15.9596C24.378 15.2641 24.5009 14.6283 24.9841 14.1259C25.3475 13.7517 25.9167 13.5791 26.6915 13.5791H27.7799V14.5839H26.7143C26.304 14.5839 26.0724 14.6447 25.8492 14.8617C25.6575 15.0592 25.526 15.4324 25.526 15.924C25.526 16.4264 25.6262 16.7886 25.8352 17.0253C26.0082 17.2108 26.3228 17.2671 26.6187 17.2671H27.1236L28.7082 13.5792H30.3928L32.2962 18.0148V13.5792H34.0081L35.9843 16.8452V13.5792H37.1359V18.2686Z" fill="white"/>
</svg>
