<?xml version="1.0" encoding="utf-8"?>
<!-- Generator: Adobe Illustrator 16.0.0, SVG Export Plug-In . SVG Version: 6.00 Build 0)  -->
<!DOCTYPE svg PUBLIC "-//W3C//DTD SVG 1.1//EN" "http://www.w3.org/Graphics/SVG/1.1/DTD/svg11.dtd">
<svg version="1.1" id="Layer_1" xmlns="http://www.w3.org/2000/svg" xmlns:xlink="http://www.w3.org/1999/xlink" x="0px" y="0px"
	 width="20px" height="20px" viewBox="0 0 20 20" enable-background="new 0 0 20 20" xml:space="preserve">
<circle fill-rule="evenodd" clip-rule="evenodd" fill="#010202" cx="3.168" cy="4.501" r="1.168"/>
<circle fill-rule="evenodd" clip-rule="evenodd" fill="#010202" cx="3.168" cy="9.999" r="1.168"/>
<circle fill-rule="evenodd" clip-rule="evenodd" fill="#010202" cx="3.168" cy="15.334" r="1.168"/>
<g>
	<path fill="#010202" d="M18,4.001v1.332c0,0.181-0.065,0.338-0.198,0.469C17.669,5.935,17.514,6,17.333,6H6.667
		C6.486,6,6.331,5.935,6.198,5.802C6.065,5.671,6,5.514,6,5.333V4.001c0-0.182,0.065-0.338,0.198-0.47s0.288-0.198,0.469-0.198
		h10.666c0.181,0,0.336,0.066,0.469,0.198S18,3.819,18,4.001z M18,9.333v1.334c0,0.18-0.065,0.336-0.198,0.468
		s-0.288,0.198-0.469,0.198H6.667c-0.181,0-0.336-0.066-0.469-0.198S6,10.847,6,10.667V9.333c0-0.181,0.065-0.337,0.198-0.469
		c0.133-0.131,0.288-0.197,0.469-0.197h10.666c0.181,0,0.336,0.066,0.469,0.197C17.935,8.996,18,9.152,18,9.333z M18,14.666v1.333
		c0,0.181-0.065,0.338-0.198,0.47s-0.288,0.198-0.469,0.198H6.667c-0.181,0-0.336-0.066-0.469-0.198S6,16.18,6,15.999v-1.333
		c0-0.18,0.065-0.337,0.198-0.469c0.133-0.133,0.288-0.198,0.469-0.198h10.666c0.181,0,0.336,0.065,0.469,0.198
		C17.935,14.329,18,14.486,18,14.666z"/>
</g>
</svg>
