<?xml version="1.0" encoding="utf-8"?>
<!-- Generator: Adobe Illustrator 16.0.0, SVG Export Plug-In . SVG Version: 6.00 Build 0)  -->
<!DOCTYPE svg PUBLIC "-//W3C//DTD SVG 1.1//EN" "http://www.w3.org/Graphics/SVG/1.1/DTD/svg11.dtd">
<svg version="1.1" id="Layer_1" xmlns="http://www.w3.org/2000/svg" xmlns:xlink="http://www.w3.org/1999/xlink" x="0px" y="0px"
	 width="20px" height="20px" viewBox="0 0 20 20" enable-background="new 0 0 20 20" xml:space="preserve">
<g>
	<path d="M18,5.101c-0.454,0.656-1.001,1.214-1.645,1.676c0.007,0.094,0.01,0.234,0.01,0.421c0,0.871-0.129,1.739-0.386,2.606
		c-0.257,0.866-0.648,1.698-1.172,2.495c-0.525,0.796-1.149,1.5-1.874,2.113c-0.724,0.612-1.597,1.101-2.619,1.465
		c-1.022,0.365-2.115,0.547-3.28,0.547c-1.834,0-3.513-0.485-5.035-1.455c0.236,0.026,0.5,0.04,0.792,0.04
		c1.523,0,2.88-0.462,4.071-1.386c-0.71-0.013-1.347-0.229-1.908-0.647c-0.562-0.418-0.948-0.952-1.158-1.601
		c0.223,0.033,0.43,0.05,0.62,0.05c0.291,0,0.579-0.037,0.863-0.11c-0.758-0.154-1.386-0.527-1.883-1.12
		C2.898,9.604,2.65,8.916,2.65,8.133v-0.04c0.46,0.254,0.954,0.392,1.482,0.412C3.685,8.209,3.33,7.825,3.066,7.35
		C2.802,6.875,2.669,6.359,2.669,5.804c0-0.589,0.149-1.135,0.447-1.636c0.819,0.998,1.815,1.795,2.99,2.394
		s2.432,0.932,3.771,0.999C9.824,7.307,9.796,7.059,9.796,6.818c0-0.897,0.32-1.662,0.959-2.294c0.64-0.632,1.414-0.948,2.32-0.948
		c0.948,0,1.746,0.341,2.396,1.023c0.737-0.14,1.431-0.401,2.081-0.783c-0.25,0.77-0.731,1.365-1.441,1.787
		C16.741,5.536,17.371,5.369,18,5.101z"/>
</g>
</svg>
