<?xml version="1.0" encoding="utf-8"?>
<!-- Generator: Adobe Illustrator 16.0.0, SVG Export Plug-In . SVG Version: 6.00 Build 0)  -->
<!DOCTYPE svg PUBLIC "-//W3C//DTD SVG 1.1//EN" "http://www.w3.org/Graphics/SVG/1.1/DTD/svg11.dtd">
<svg version="1.1" id="Layer_1" xmlns="http://www.w3.org/2000/svg" xmlns:xlink="http://www.w3.org/1999/xlink" x="0px" y="0px"
	 width="20px" height="20px" viewBox="0 0 20 20" enable-background="new 0 0 20 20" xml:space="preserve">
<g>
	<path fill="#010202" d="M2.141,2h15.731L18,7.646h-1.536l-0.129-1.611c-0.079-0.917-0.354-1.57-0.827-1.955
		c-0.474-0.384-1.233-0.574-2.278-0.574c-0.759,0-1.274,0.131-1.547,0.396c-0.272,0.265-0.409,0.817-0.409,1.657l-0.032,8.926
		c0,0.818,0.138,1.36,0.414,1.626c0.275,0.265,0.815,0.396,1.617,0.396h1.118V18H5.61v-1.494h1.301c0.688,0,1.167-0.138,1.44-0.418
		c0.272-0.278,0.407-0.812,0.407-1.604V5.516c0-0.798-0.139-1.333-0.419-1.604S7.542,3.505,6.782,3.505
		c-1.046,0-1.805,0.19-2.278,0.574C4.032,4.464,3.755,5.117,3.676,6.033L3.547,7.646H2L2.141,2z"/>
</g>
</svg>
