<?xml version="1.0" encoding="utf-8"?>
<!-- Generator: Adobe Illustrator 17.0.0, SVG Export Plug-In . SVG Version: 6.00 Build 0)  -->
<!DOCTYPE svg PUBLIC "-//W3C//DTD SVG 1.1//EN" "http://www.w3.org/Graphics/SVG/1.1/DTD/svg11.dtd">
<svg version="1.1" id="Layer_1" xmlns="http://www.w3.org/2000/svg" xmlns:xlink="http://www.w3.org/1999/xlink" x="0px" y="0px"
	 width="20px" height="20px" viewBox="0 0 20 20" enable-background="new 0 0 20 20" xml:space="preserve">
<g>
	<path fill="#FFFFFF" d="M12.72,11.504L8.084,3.587H0.556v0H0v0.176V4.08l0.001,0.002C0.014,4.108,0.024,4.12,0.023,4.116
		L0.011,4.096C0.02,4.109,0.023,4.114,0.023,4.116c0,0,7.086,12.29,7.093,12.297h0.489c0.004-0.005,1.285-2.215,1.285-2.215
		l-4.829-8.07l2.312-0.002l5.973,10.286h0.495l1.384-2.382l-0.001,0.002L12.72,11.504z"/>
	<path fill="#FFFFFF" d="M19.729,3.587h-0.285h-7.706L10.62,5.493l1.641,2.786l1.295-2.159h2.373l-1.029,1.726l-2.18,3.657
		l1.504,2.53l0.001-0.002l2.314-3.985l3.447-5.936C19.985,4.112,19.991,4.1,20,4.082h0v0V3.738V3.587H19.729z"/>
</g>
</svg>
