<?xml version="1.0" encoding="UTF-8" standalone="no"?>
<svg width="64px" height="64px" viewBox="0 0 64 64" version="1.1" xmlns="http://www.w3.org/2000/svg" xmlns:xlink="http://www.w3.org/1999/xlink">
    <!-- Generator: Sketch 3.8.3 (29802) - http://www.bohemiancoding.com/sketch -->
    <title>58 - Settings</title>
    <desc>Created with Sketch.</desc>
    <defs></defs>
    <g id="Page-1" stroke="none" stroke-width="1" fill="none" fill-rule="evenodd" opacity="0.349871735">
        <g id="58---Settings" fill="#FFFFFF">
            <g id="waboot-icon-64x64" transform="translate(8.000000, 18.000000)">
                <g id="Layer_1">
                    <g id="Group">
                        <path d="M31.7984375,20.2808571 L20.2101562,0.374785714 L1.38984375,0.374785714 L1.38984375,0.374 L0,0.374 L0,0.817928571 L0,1.61464286 L0.00234375,1.62014286 C0.034375,1.68535714 0.05859375,1.71678571 0.05703125,1.70735714 L0.02734375,1.6555 C0.04921875,1.6885 0.05625,1.70185714 0.05703125,1.70735714 C0.05703125,1.70735714 17.7726562,32.6079286 17.7882812,32.6267857 L19.0109375,32.6267857 C19.021875,32.6142143 22.2234375,27.0584286 22.2234375,27.0584286 L10.1515625,6.76814286 L15.9320312,6.76342857 L30.865625,32.626 L32.1023437,32.626 L35.5609375,26.6357143 L35.5578125,26.6404286 L31.7984375,20.2808571 L31.7984375,20.2808571 Z" id="Shape"></path>
                        <path d="M49.321875,0.374785714 L48.6109375,0.374785714 L29.3453125,0.374785714 L26.5507812,5.16842857 L30.6523438,12.1746429 L33.890625,6.74535714 L39.821875,6.74535714 L37.2492187,11.0856429 L31.7992187,20.2808571 L35.5585937,26.6412143 L35.5617187,26.6365 L41.3476562,16.6162857 L49.9664062,1.69007143 C49.9625,1.69557143 49.978125,1.6665 50,1.62092857 L50,1.62092857 L50,1.62014286 L50,0.755071429 L50,0.374785714 L49.321875,0.374785714 L49.321875,0.374785714 Z" id="Shape"></path>
                    </g>
                </g>
            </g>
        </g>
    </g>
</svg>