<?xml version="1.0" encoding="UTF-8" standalone="no"?>
<svg width="24px" height="24px" viewBox="0 0 24 24" version="1.1" xmlns="http://www.w3.org/2000/svg" xmlns:xlink="http://www.w3.org/1999/xlink">
    <!-- Generator: Sketch 3.8.3 (29802) - http://www.bohemiancoding.com/sketch -->
    <title>WaBoot icon</title>
    <desc>Created with Sketch.</desc>
    <defs></defs>
    <g id="Page-1" stroke="none" stroke-width="1" fill="none" fill-rule="evenodd">
        <g id="WaBoot-icon">
            <g id="woocommerce" transform="translate(0.000000, 4.000000)">
                <g id="Group">
                    <path d="M2.22737479,0 L21.7628848,0 C22.9991853,0 24,1.32682337 24,2.96584046 L24,12.8519753 C24,14.4909924 22.9991853,15.8178158 21.7628848,15.8178158 L14.7571821,15.8178158 L15.7187491,18.9397531 L11.4898165,15.8178158 L2.2371867,15.8178158 C1.00088621,15.8178158 7.15348555e-05,14.4909924 7.15348555e-05,12.8519753 L7.15348555e-05,2.96584046 C-0.00974037375,1.33983143 0.9910743,0 2.22737479,0 L2.22737479,0 L2.22737479,0 Z" id="Shape" fill="#000000"></path>
                    <path d="M1.36670619,4.13231309 C1.50329155,3.93846644 1.70816961,3.83644189 1.98134033,3.81603698 C2.47890131,3.77522717 2.76182814,4.02008608 2.83012083,4.55061375 C3.13255985,6.68292683 3.46426717,8.48876136 3.81548668,9.96811732 L5.95207205,5.71369361 C6.147194,5.32600032 6.39109643,5.12195122 6.68377936,5.10154631 C7.11304765,5.07093894 7.37646229,5.35660769 7.48377936,5.95855253 C7.7276818,7.31547904 8.03987693,8.46835645 8.41060863,9.44779213 C8.66426717,6.85636856 9.09353546,4.9893193 9.6984135,3.83644189 C9.844755,3.55077316 10.0593892,3.40793878 10.342316,3.38753387 C10.5667062,3.36712896 10.7715843,3.43854615 10.9569501,3.59158297 C11.1423159,3.7446198 11.2398769,3.93846644 11.2593892,4.17312291 C11.2691453,4.3567671 11.2398769,4.50980392 11.1618281,4.66284075 C10.7813404,5.3974175 10.4691452,6.63191456 10.2154867,8.34592699 C9.97158422,10.0089271 9.88377938,11.3046389 9.94231594,12.2330624 C9.96182813,12.4881237 9.92280375,12.7125777 9.82524281,12.9064243 C9.70816959,13.1308783 9.53255981,13.2533078 9.3081696,13.2737127 C9.05451107,13.2941176 8.79109643,13.1716882 8.53743789,12.8962219 C7.63012083,11.9269887 6.9081696,10.4782401 6.38134034,8.54997609 C5.74719399,9.85589032 5.27890132,10.835326 4.97646229,11.4882831 C4.40085253,12.6411605 3.91304766,13.2329029 3.50329156,13.2635103 C3.23987693,13.2839152 3.01548668,13.0492587 2.82036473,12.5595409 C2.32280375,11.2230193 1.78621838,8.64179819 1.21060863,4.81587757 C1.17158423,4.55061375 1.23012083,4.31595727 1.36670619,4.13231309 L1.36670619,4.13231309 Z M22.3325599,5.73409852 C21.9813403,5.09134385 21.4642672,4.70365057 20.7715842,4.55061375 C20.5862183,4.50980392 20.4106087,4.48939901 20.244755,4.48939901 C19.3081696,4.48939901 18.547194,4.99952176 17.952072,6.01976725 C17.4447549,6.88697593 17.1910964,7.8460067 17.1910964,8.89685956 C17.1910964,9.68244859 17.347194,10.3558106 17.6593891,10.9169456 C18.0106087,11.5597003 18.5276818,11.9473936 19.2203648,12.1004304 C19.4057306,12.1412402 19.5813403,12.1616451 19.747194,12.1616451 C20.6935355,12.1616451 21.4545111,11.6515224 22.0398769,10.6312769 C22.547194,9.75386577 22.8008526,8.79483501 22.8008526,7.74398215 C22.8106087,6.94819066 22.644755,6.28503109 22.3325599,5.73409852 L22.3325599,5.73409852 Z M21.1032916,8.56017854 C20.9667062,9.23354057 20.7228038,9.73346086 20.3618282,10.0701419 C20.0789013,10.3354057 19.8154867,10.4476327 19.5715842,10.3966204 C19.3374379,10.3456082 19.1423159,10.1313566 18.9959745,9.73346086 C18.8789013,9.41718476 18.8203647,9.10090866 18.8203647,8.80503746 C18.8203647,8.54997609 18.8398769,8.29491472 18.8886574,8.06025825 C18.9764623,7.6419576 19.1423159,7.2338594 19.4057306,6.84616611 C19.7276818,6.34624581 20.0691452,6.14219672 20.4203648,6.2136139 C20.6545111,6.26462618 20.8496331,6.47887773 20.9959745,6.87677347 C21.1130477,7.19304958 21.1715843,7.50932569 21.1715843,7.80519687 C21.1715843,8.07046071 21.1520721,8.32552208 21.1032916,8.56017854 L21.1032916,8.56017854 Z M16.2252428,5.73409852 C15.8740233,5.09134385 15.347194,4.70365057 14.6642672,4.55061375 C14.4789013,4.50980392 14.3032915,4.48939901 14.1374379,4.48939901 C13.2008526,4.48939901 12.4398769,4.99952176 11.844755,6.01976725 C11.3374379,6.88697593 11.0837794,7.8460067 11.0837794,8.89685956 C11.0837794,9.68244859 11.2398769,10.3558106 11.5520721,10.9169456 C11.9032915,11.5597003 12.4203647,11.9473936 13.1130476,12.1004304 C13.2984135,12.1412402 13.4740233,12.1616451 13.6398769,12.1616451 C14.5862183,12.1616451 15.347194,11.6515224 15.9325598,10.6312769 C16.4398769,9.75386577 16.6935354,8.79483501 16.6935354,7.74398215 C16.6935354,6.94819066 16.5374379,6.28503109 16.2252428,5.73409852 L16.2252428,5.73409852 Z M14.9862184,8.56017854 C14.8496331,9.23354057 14.6057306,9.73346086 14.244755,10.0701419 C13.9618282,10.3354057 13.6984135,10.4476327 13.4545111,10.3966204 C13.2203648,10.3456082 13.0252428,10.1313566 12.8789013,9.73346086 C12.7618282,9.41718476 12.7032916,9.10090866 12.7032916,8.80503746 C12.7032916,8.54997609 12.7228038,8.29491472 12.7715843,8.06025825 C12.8593891,7.6419576 13.0252428,7.2338594 13.2886574,6.84616611 C13.6106086,6.34624581 13.9520721,6.14219672 14.3032915,6.2136139 C14.5374379,6.26462618 14.7325598,6.47887773 14.8789013,6.87677347 C14.9959745,7.19304958 15.054511,7.50932569 15.054511,7.80519687 C15.0642671,8.07046071 15.0349988,8.32552208 14.9862184,8.56017854 L14.9862184,8.56017854 L14.9862184,8.56017854 L14.9862184,8.56017854 Z" id="Shape" fill="#FFFFFF"></path>
                </g>
            </g>
        </g>
    </g>
</svg>