<?xml version="1.0" encoding="utf-8"?>
<!-- Generator: Adobe Illustrator 16.0.0, SVG Export Plug-In . SVG Version: 6.00 Build 0)  -->
<!DOCTYPE svg PUBLIC "-//W3C//DTD SVG 1.1//EN" "http://www.w3.org/Graphics/SVG/1.1/DTD/svg11.dtd">
<svg version="1.1" id="Layer_1" xmlns="http://www.w3.org/2000/svg" xmlns:xlink="http://www.w3.org/1999/xlink" x="0px" y="0px"
	 width="20px" height="20px" viewBox="0 0 20 20" enable-background="new 0 0 20 20" xml:space="preserve">
<g>
	<g>
		<path d="M2,10.991V8.992c0.604-0.005,1.061-0.184,1.365-0.535c0.306-0.353,0.457-1.142,0.457-2.365
			c0-0.943,0.036-1.641,0.105-2.092c0.068-0.452,0.237-0.83,0.504-1.135C4.698,2.56,5.042,2.34,5.463,2.204
			C5.885,2.068,6.481,2,7.254,2h0.439v1.997c-0.805,0-1.286,0.083-1.444,0.246C6.091,4.407,6.007,4.729,5.996,5.212
			C5.962,6.547,5.919,7.414,5.867,7.81C5.814,8.206,5.692,8.587,5.501,8.952c-0.192,0.366-0.549,0.713-1.069,1.04
			c0.493,0.3,0.853,0.657,1.078,1.073c0.224,0.417,0.355,1.016,0.396,1.799l0.124,2.431c0.05,0.228,0.17,0.402,0.359,0.524
			c0.19,0.122,0.626,0.184,1.305,0.184V18H7.261c-0.89,0-1.577-0.102-2.061-0.304c-0.485-0.203-0.834-0.535-1.051-0.996
			c-0.219-0.461-0.327-1.206-0.327-2.233c0-1.135-0.037-1.859-0.115-2.176c-0.079-0.316-0.229-0.606-0.45-0.871
			C3.035,11.156,2.617,11.014,2,10.991z"/>
	</g>
	<g>
		<path d="M18,9.009v1.999c-0.604,0.005-1.061,0.184-1.365,0.535c-0.306,0.353-0.457,1.142-0.457,2.365
			c0,0.943-0.036,1.641-0.105,2.092c-0.068,0.452-0.237,0.83-0.504,1.135c-0.267,0.306-0.61,0.525-1.031,0.661
			C14.115,17.932,13.519,18,12.746,18h-0.439v-1.997c0.805,0,1.286-0.083,1.444-0.246c0.158-0.164,0.242-0.486,0.253-0.969
			c0.034-1.335,0.077-2.202,0.129-2.598c0.053-0.396,0.175-0.777,0.366-1.143c0.192-0.366,0.549-0.713,1.069-1.04
			c-0.493-0.3-0.853-0.657-1.078-1.073c-0.224-0.417-0.355-1.016-0.396-1.799l-0.124-2.431c-0.05-0.228-0.17-0.402-0.359-0.524
			c-0.19-0.122-0.626-0.184-1.305-0.184V2h0.433c0.89,0,1.577,0.102,2.061,0.304c0.485,0.203,0.834,0.535,1.051,0.996
			c0.219,0.461,0.327,1.206,0.327,2.233c0,1.135,0.037,1.859,0.115,2.176c0.079,0.316,0.229,0.606,0.45,0.871
			C16.965,8.844,17.383,8.986,18,9.009z"/>
	</g>
</g>
</svg>
