<?xml version="1.0" encoding="utf-8"?>
<!-- Generator: Adobe Illustrator 16.0.0, SVG Export Plug-In . SVG Version: 6.00 Build 0)  -->
<!DOCTYPE svg PUBLIC "-//W3C//DTD SVG 1.1//EN" "http://www.w3.org/Graphics/SVG/1.1/DTD/svg11.dtd">
<svg version="1.1" id="Layer_1" xmlns="http://www.w3.org/2000/svg" xmlns:xlink="http://www.w3.org/1999/xlink" x="0px" y="0px"
	 width="20px" height="20px" viewBox="0 0 20 20" enable-background="new 0 0 20 20" xml:space="preserve">
<g>
	<g>
		<g>
			<path d="M5.803,17.765c-1.17,0-2.565-0.486-2.565-2.802c0-0.439,0.025-0.934,0.079-1.513c0.05-0.545,0.091-1.006,0.091-1.449
				c0-0.61-0.161-1.021-0.945-1.048l-0.227-0.008V9.039L2.461,9.03C3.249,9,3.407,8.605,3.407,7.98c0-0.444-0.042-0.908-0.087-1.399
				C3.263,5.952,3.237,5.458,3.237,5.019c0-1.795,0.916-2.783,2.581-2.783h0.774V4.31H6.08c-0.349,0-0.705,0.132-0.705,1.105
				c0,0.227,0.021,0.451,0.044,0.693l0.049,0.57c0.028,0.331,0.06,0.7,0.06,1.095C5.54,8.919,5.251,9.611,4.576,9.981
				c0.675,0.373,0.965,1.072,0.951,2.229c0,0.398-0.03,0.762-0.058,1.098l-0.049,0.567c-0.022,0.251-0.046,0.489-0.046,0.71
				c0,0.985,0.339,1.122,0.705,1.122h0.513v2.057H5.803z"/>
			<path d="M6.357,2.471v1.604H6.08c-0.694,0-0.94,0.511-0.94,1.341c0,0.341,0.046,0.678,0.076,1.076
				c0.03,0.376,0.076,0.811,0.076,1.282c0.017,1.435-0.461,1.964-1.311,2.188v0.038c0.85,0.228,1.327,0.774,1.311,2.21
				c0,0.489-0.046,0.924-0.076,1.318c-0.03,0.379-0.076,0.736-0.076,1.059c0,0.829,0.23,1.357,0.94,1.357h0.277v1.586H5.803
				c-1.373,0-2.33-0.681-2.33-2.566c0-0.472,0.031-0.981,0.078-1.491c0.046-0.51,0.092-0.999,0.092-1.471
				c0-0.529-0.107-1.247-1.172-1.283V9.266C3.535,9.225,3.643,8.548,3.643,7.98c0-0.471-0.046-0.962-0.092-1.471
				C3.504,6,3.473,5.49,3.473,5.019c0-1.774,0.91-2.548,2.346-2.548H6.357 M6.828,2H6.357H5.818c-1.79,0-2.816,1.101-2.816,3.019
				c0,0.446,0.026,0.948,0.08,1.535l0.004,0.049C3.131,7.088,3.172,7.547,3.172,7.98c0,0.556-0.101,0.791-0.72,0.814L2,8.813v0.452
				v1.452v0.455l0.455,0.016c0.609,0.021,0.717,0.278,0.717,0.812c0,0.432-0.041,0.888-0.085,1.37L3.082,13.43
				c-0.054,0.585-0.08,1.087-0.08,1.533C3.002,16.922,3.996,18,5.803,18h0.555h0.471v-0.471v-1.586v-0.471H6.357H6.08
				c-0.198,0-0.47,0-0.47-0.887c0-0.206,0.022-0.439,0.045-0.688l0.029-0.333l0.02-0.237c0.027-0.331,0.059-0.707,0.059-1.119
				c0.012-1.061-0.229-1.78-0.767-2.227c0.537-0.443,0.778-1.159,0.767-2.214c0-0.402-0.032-0.778-0.061-1.11L5.685,6.453
				C5.676,6.327,5.664,6.205,5.653,6.087C5.631,5.84,5.61,5.627,5.61,5.415c0-0.87,0.271-0.87,0.47-0.87h0.277h0.471V4.074V2.471V2
				L6.828,2z"/>
		</g>
	</g>
	<g>
		<g>
			<path d="M13.407,17.765v-2.076h0.513c0.349,0,0.705-0.132,0.705-1.104c0-0.226-0.021-0.451-0.044-0.694l-0.049-0.57
				c-0.028-0.332-0.06-0.699-0.06-1.093c-0.013-1.146,0.276-1.839,0.952-2.209c-0.676-0.372-0.966-1.07-0.952-2.229
				c0-0.399,0.03-0.766,0.058-1.103l0.049-0.564c0.022-0.25,0.046-0.487,0.046-0.708c0-0.986-0.339-1.123-0.705-1.123h-0.513V2.235
				h0.79c1.17,0,2.565,0.486,2.565,2.802c0,0.439-0.025,0.934-0.079,1.513c-0.049,0.542-0.091,1.005-0.091,1.449
				c0,0.608,0.161,1.02,0.945,1.048l0.227,0.008v1.906l-0.227,0.009c-0.787,0.029-0.945,0.423-0.945,1.05
				c0,0.442,0.041,0.905,0.087,1.395c0.058,0.634,0.083,1.128,0.083,1.567c0,1.795-0.916,2.783-2.581,2.783H13.407z"/>
			<path d="M14.197,2.471c1.373,0,2.33,0.68,2.33,2.566c0,0.471-0.031,0.981-0.078,1.491c-0.046,0.509-0.092,0.999-0.092,1.471
				c0,0.529,0.107,1.244,1.172,1.283v1.452c-1.064,0.039-1.172,0.718-1.172,1.285c0,0.471,0.046,0.961,0.092,1.471
				c0.047,0.51,0.078,1.019,0.078,1.491c0,1.774-0.91,2.548-2.346,2.548h-0.539v-1.605h0.277c0.694,0,0.94-0.509,0.94-1.34
				c0-0.339-0.046-0.678-0.076-1.075c-0.03-0.377-0.076-0.811-0.076-1.282c-0.017-1.436,0.461-1.964,1.311-2.188v-0.04
				c-0.85-0.225-1.327-0.773-1.311-2.207c0-0.489,0.046-0.925,0.076-1.319c0.03-0.379,0.076-0.735,0.076-1.058
				c0-0.829-0.23-1.358-0.94-1.358h-0.277V2.471H14.197 M14.197,2h-0.555h-0.471v0.471v1.585v0.471h0.471h0.277
				c0.198,0,0.47,0,0.47,0.888c0,0.205-0.022,0.439-0.045,0.688l-0.029,0.332l-0.02,0.233C14.269,7,14.237,7.378,14.237,7.791
				c-0.012,1.061,0.229,1.78,0.768,2.227c-0.538,0.443-0.779,1.159-0.768,2.214c0,0.401,0.032,0.776,0.061,1.107l0.018,0.208
				c0.009,0.126,0.021,0.247,0.031,0.365c0.022,0.247,0.043,0.461,0.043,0.672c0,0.869-0.271,0.869-0.47,0.869h-0.277h-0.471v0.471
				v1.605V18h0.471h0.539c1.79,0,2.816-1.101,2.816-3.019c0-0.446-0.026-0.948-0.08-1.535l-0.005-0.054
				c-0.044-0.484-0.085-0.941-0.085-1.373c0-0.557,0.101-0.792,0.719-0.814L18,11.188v-0.453V9.282V8.828l-0.453-0.017
				c-0.611-0.022-0.719-0.279-0.719-0.812c0-0.434,0.041-0.892,0.086-1.376l0.004-0.053c0.054-0.585,0.08-1.087,0.08-1.533
				C16.998,3.078,16.004,2,14.197,2L14.197,2z"/>
		</g>
	</g>
</g>
</svg>
