<?xml version="1.0" encoding="UTF-8" standalone="no"?>
<svg width="16px" height="10px" viewBox="0 0 16 10" version="1.1" xmlns="http://www.w3.org/2000/svg" xmlns:xlink="http://www.w3.org/1999/xlink">
    <!-- Generator: Sketch 41.2 (35397) - http://www.bohemiancoding.com/sketch -->
    <title>Fill 1</title>
    <desc>Created with Sketch.</desc>
    <defs></defs>
    <g id="Page-1" stroke="none" stroke-width="1" fill="none" fill-rule="evenodd">
        <g id="COMPONENTS" transform="translate(-1233.000000, -392.000000)" fill="#76B5CA">
            <g id="Page-1" transform="translate(1233.000000, 392.000000)">
                <path d="M1.001,9.21 C1.194,9.392 1.481,9.405 1.678,9.21 L8,2.888 L14.322,9.21 C14.517,9.405 14.789,9.408 15.018,9.191 L15.849,8.348 C15.959,8.238 16,8.142 16,7.999 C16,7.838 15.951,7.76 15.873,7.686 L8.333,0.146 C8.24,0.048 8.162,0 8,0 C7.857,0 7.762,0.04 7.657,0.145 L0.135,7.667 C0.038,7.764 0,7.857 0,7.999 C0,8.143 0.045,8.248 0.153,8.363 L1.001,9.21 Z" id="Fill-1"></path>
            </g>
        </g>
    </g>
</svg>