<?xml version="1.0" encoding="UTF-8" standalone="no"?>
<svg width="12px" height="12px" viewBox="0 0 12 12" version="1.1" xmlns="http://www.w3.org/2000/svg" xmlns:xlink="http://www.w3.org/1999/xlink">
    <!-- Generator: Sketch 41.2 (35397) - http://www.bohemiancoding.com/sketch -->
    <title>Shape</title>
    <desc>Created with Sketch.</desc>
    <defs></defs>
    <g id="Page-1" stroke="none" stroke-width="1" fill="none" fill-rule="evenodd">
        <g id="COMPONENTS" transform="translate(-914.000000, -483.000000)" fill="#717071">
            <path d="M925.195474,485.988253 C924.658963,485.069042 923.93115,484.341228 923.011938,483.804718 C922.092535,483.268207 921.088843,483 920.000192,483 C918.911636,483 917.907657,483.268207 916.988445,483.804718 C916.069137,484.341132 915.341324,485.068946 914.804814,485.988253 C914.268207,486.907561 914,487.91154 914,489 C914,490.088555 914.268303,491.092343 914.804718,492.011747 C915.341228,492.930863 916.069042,493.658772 916.988349,494.195282 C917.907657,494.731793 918.91154,495 920.000096,495 C921.088651,495 922.092631,494.731793 923.011843,494.195282 C923.931054,493.658868 924.658868,492.930958 925.195378,492.011747 C925.731793,491.092439 926,490.08846 926,489 C926,487.911445 925.731793,486.907465 925.195474,485.988253 L925.195474,485.988253 Z M919.000144,484.499928 C919.000144,484.426955 919.023541,484.367119 919.070432,484.320228 C919.117323,484.273433 919.177255,484.24994 919.250132,484.24994 L920.750252,484.24994 C920.823129,484.24994 920.883061,484.273433 920.92976,484.320228 C920.976555,484.367119 921.000144,484.426955 921.000144,484.499928 L921.000144,485.749964 C921.000144,485.822841 920.976555,485.882773 920.92976,485.929568 C920.883061,485.976459 920.823129,485.999856 920.750252,485.999856 L919.250132,485.999856 C919.177255,485.999856 919.117323,485.976459 919.070432,485.929568 C919.023541,485.882773 919.000144,485.822841 919.000144,485.749964 L919.000144,484.499928 L919.000144,484.499928 Z M922.000096,492.750012 C922.000096,492.822889 921.976507,492.882821 921.929808,492.92952 C921.883109,492.976411 921.823177,492.999808 921.750108,492.999808 L918.250084,492.999808 C918.177111,492.999808 918.117275,492.976411 918.070384,492.92952 C918.023493,492.882725 918.000096,492.822793 918.000096,492.749916 L918.000096,491.49988 C918.000096,491.426811 918.023493,491.367071 918.070384,491.32018 C918.117275,491.273385 918.177207,491.249892 918.250084,491.249892 L919.000144,491.249892 L919.000144,488.749916 L918.250084,488.749916 C918.177111,488.749916 918.117275,488.726519 918.070384,488.679628 C918.023493,488.632833 918.000096,488.572901 918.000096,488.499928 L918.000096,487.249988 C918.000096,487.177015 918.023493,487.117179 918.070384,487.070288 C918.117275,487.023397 918.177207,487 918.250084,487 L920.750252,487 C920.823129,487 920.883061,487.023397 920.92976,487.070288 C920.976555,487.117179 921.000144,487.177015 921.000144,487.249988 L921.000144,491.249988 L921.750012,491.249988 C921.822985,491.249988 921.882917,491.273481 921.929712,491.320276 C921.976411,491.367071 922,491.427003 922,491.499976 L922,492.750012 L922.000096,492.750012 Z" id="Shape"></path>
        </g>
    </g>
</svg>