<?xml version="1.0" encoding="UTF-8" standalone="no"?>
<svg width="30px" height="30px" viewBox="0 0 30 30" version="1.1" xmlns="http://www.w3.org/2000/svg" xmlns:xlink="http://www.w3.org/1999/xlink">
    <!-- Generator: Sketch 41.2 (35397) - http://www.bohemiancoding.com/sketch -->
    <title>Shape</title>
    <desc>Created with Sketch.</desc>
    <defs></defs>
    <g id="Page-1" stroke="none" stroke-width="1" fill="none" fill-rule="evenodd">
        <g id="COMPONENTS" transform="translate(-1090.000000, -386.000000)" fill="#76B5CB">
            <path d="M1119.84394,398.412239 C1119.73941,398.275353 1119.60301,398.193845 1119.43376,398.167954 L1115.85963,397.621131 C1115.66425,396.996156 1115.39719,396.358236 1115.05869,395.70713 C1115.29291,395.381577 1115.64435,394.922735 1116.11302,394.330123 C1116.5817,393.737512 1116.91372,393.3048 1117.1091,393.031269 C1117.21338,392.88791 1117.26516,392.738319 1117.26516,392.582015 C1117.26516,392.399821 1117.21986,392.256702 1117.12852,392.15242 C1116.65985,391.488129 1115.58562,390.381538 1113.90583,388.831926 C1113.75001,388.701752 1113.58699,388.636786 1113.41798,388.636786 C1113.2226,388.636786 1113.0663,388.69528 1112.94907,388.812268 L1110.17588,390.90223 C1109.64176,390.628699 1109.05586,390.38777 1108.41794,390.179445 L1107.87112,386.585899 C1107.85818,386.41665 1107.78314,386.276648 1107.64649,386.165893 C1107.50961,386.055138 1107.35043,386 1107.16775,386 L1102.83201,386 C1102.45443,386 1102.21998,386.182194 1102.12888,386.546823 C1101.95963,387.197689 1101.77072,388.408563 1101.5624,390.179445 C1100.95037,390.375065 1100.358,390.622466 1099.78504,390.921888 L1097.08976,388.831926 C1096.92051,388.701752 1096.75126,388.636786 1096.58202,388.636786 C1096.29554,388.636786 1095.68039,389.102101 1094.73634,390.03321 C1093.79228,390.96432 1093.15125,391.664091 1092.81251,392.132762 C1092.69528,392.302011 1092.63679,392.451842 1092.63679,392.582015 C1092.63679,392.738319 1092.70175,392.894623 1092.83193,393.050687 C1093.7043,394.105497 1094.40096,395.003764 1094.92189,395.746206 C1094.59634,396.34505 1094.34246,396.944135 1094.16027,397.542979 L1090.52741,398.089802 C1090.38429,398.115933 1090.26059,398.200557 1090.1563,398.343916 C1090.05202,398.487034 1090,398.636865 1090,398.792929 L1090,403.128918 C1090,403.298407 1090.05202,403.451115 1090.1563,403.587761 C1090.26059,403.724646 1090.39723,403.806394 1090.56648,403.832285 L1094.14085,404.35969 C1094.32304,404.99761 1094.58986,405.642003 1094.94155,406.292869 C1094.70733,406.618422 1094.35565,407.077264 1093.88698,407.669876 C1093.4183,408.262487 1093.08604,408.695199 1092.8909,408.968731 C1092.78662,409.112329 1092.7346,409.26168 1092.7346,409.417984 C1092.7346,409.587233 1092.78014,409.736824 1092.87124,409.866997 C1093.37899,410.570364 1094.45322,411.66425 1096.09393,413.148416 C1096.23728,413.291774 1096.40006,413.363214 1096.58226,413.363214 C1096.77763,413.363214 1096.94041,413.30472 1097.07058,413.187731 L1099.8246,411.097529 C1100.35872,411.371061 1100.94461,411.611989 1101.58253,411.820554 L1102.12936,415.4141 C1102.14254,415.583349 1102.21734,415.723351 1102.35398,415.834106 C1102.49063,415.945101 1102.65029,415.999999 1102.83248,415.999999 L1107.16847,415.999999 C1107.54653,415.999999 1107.78074,415.817805 1107.87208,415.453176 C1108.04109,414.80207 1108.22976,413.591436 1108.43808,411.820554 C1109.05011,411.625174 1109.64272,411.377533 1110.21544,411.078111 L1112.91096,413.187731 C1113.09315,413.30472 1113.26264,413.363214 1113.4187,413.363214 C1113.70494,413.363214 1114.31697,412.901255 1115.25431,411.976618 C1116.19213,411.05222 1116.83653,410.348854 1117.18773,409.866997 C1117.30496,409.736824 1117.36369,409.587233 1117.36369,409.417984 C1117.36369,409.248735 1117.29873,409.085479 1117.16831,408.929655 C1116.23097,407.783747 1115.53432,406.885481 1115.07835,406.234375 C1115.3387,405.752519 1115.59281,405.160147 1115.84021,404.45702 L1119.45342,403.910437 C1119.60948,403.884306 1119.74013,403.799442 1119.84417,403.656083 C1119.94822,403.512725 1120,403.362894 1120,403.20683 L1120,398.871081 C1120.00024,398.701832 1119.94846,398.549124 1119.84394,398.412239 L1119.84394,398.412239 Z M1108.53565,404.535172 C1107.55923,405.51183 1106.38072,406.000159 1105.00036,406.000159 C1103.62,406.000159 1102.44173,405.51183 1101.46507,404.535172 C1100.48865,403.558753 1100.00032,402.380482 1100.00032,401.000119 C1100.00032,399.619757 1100.48841,398.441486 1101.46507,397.464827 C1102.44173,396.488409 1103.62024,396.00008 1105.00036,396.00008 C1106.38072,396.00008 1107.55923,396.488409 1108.53565,397.464827 C1109.51207,398.441486 1110.0004,399.619757 1110.0004,401.000119 C1110.0004,402.380482 1109.51207,403.558753 1108.53565,404.535172 L1108.53565,404.535172 Z" id="Shape"></path>
        </g>
    </g>
</svg>